<svg xmlns="http://www.w3.org/2000/svg" viewBox="0 0 45.17 50.8">
  <path fill="#0163cf" d="M19.7 50.67c-1.19-.15-2.69-.5-3.8-.89a32.53 32.53 0 0 1-3.8-1.63 30.08 30.08 0 0 1-2.85-1.98 32.8 32.8 0 0 1-3.65-3.76 27.42 27.42 0 0 1-4.16-8.33 17.6 17.6 0 0 1-.53-4.66c-.02-.88-.06-1.8-.09-2.03-.02-.23-.1-2.06-.16-4.06l-.22-5.85C.26 13.04.1 7.06.04 3.58L0 0h45.17l-.04 5.36c-.03 2.94-.1 6.55-.15 8.02l-.22 7.28c-.33 11.55-.3 11.14-.75 12.95a26.96 26.96 0 0 1-1.98 5.49 23.5 23.5 0 0 1-8.14 8.65 23.65 23.65 0 0 1-7.16 2.72c-1.62.33-5.23.43-7.02.2zm10.05-7.6c.79-.9 1.54-1.85 2.04-2.56.26-.37.66-.9.89-1.16.22-.26.6-.8.82-1.18.22-.39.62-1.03.89-1.42.26-.4.63-1 .8-1.32l.43-.72c.19-.22 1.55-2.91 1.87-3.7.31-.74.99-2.8 1.1-3.34l.3-1.34a51.74 51.74 0 0 0 .71-3.68c.52-2.83.63-4.87.36-6.69-.48-3.19-1.75-7.07-2.3-7.07-.08 0-.13.03-.13.06 0 .1-1.34 1.83-2.05 2.64a128.83 128.83 0 0 1-5.53 5.85c-2.89 2.92-4.51 4.6-6.65 6.86-.76.81-2.12 2.2-3 3.1a351.28 351.28 0 0 0-6.68 6.8c-.3.37-1.47 1.6-3.5 3.67l-1.57 1.6.14.3c.18.38.81 1.28 1.04 1.48.16.15.18.14.54-.1.2-.14.64-.48.97-.77.33-.29.95-.82 1.4-1.18.44-.36.96-.83 1.16-1.05.2-.21.7-.66 1.1-1 .41-.34 1.13-.96 1.6-1.38 1.8-1.6 2.11-1.88 2.69-2.36.62-.52 1.14-.8 1.47-.81.3 0 1.06.38 1.35.68.39.41.56.95.44 1.34-.21.65-.54 1.15-1.18 1.82-.37.39-.68.73-.68.76 0 .03.4.31.87.62.48.3 1.06.72 1.3.9.23.2.72.54 1.08.78.36.23 1.05.74 1.53 1.14.48.4 1.3 1.04 1.83 1.44l1.46 1.12c.28.22.54.4.57.4.04 0 .27-.23.52-.53zm-1.27-7.75a8.08 8.08 0 0 1-.81-1.69c-.06-.29-.16-.32-.52-.19-.36.14-.87-.04-1.28-.46-.3-.3-.36-.41-.36-.7 0-.18.02-.36.05-.38.02-.03.22.03.42.13.3.14.42.16.6.1.17-.07.23-.14.2-.26-.02-.09-.04-.54-.04-1 0-.93-.12-1.2-.62-1.56-.72-.5-1.3-.42-2.1.29-.64.56-.74.54-.88-.18-.38-1.85-.3-2.36.5-3.16.53-.53.74-.63 1.38-.62.53 0 .65.05 1.37.58.28.2.54.37.58.37.05 0 .06-.15.03-.32-.02-.18-.01-.62.03-.99.05-.53.13-.8.42-1.35.39-.77 1.26-1.95 1.46-1.98.18-.04 1.38 1.7 1.6 2.33.15.38.19.69.2 1.4 0 .5.02.9.05.9.03 0 .1-.05.16-.12.06-.06.28-.24.5-.38.36-.23.48-.26 1.04-.25.8 0 1.16.16 1.73.77.67.7.75.9.73 1.84a2.5 2.5 0 0 1-.3 1.41c-.17.35-.34.63-.38.63-.05 0-.2-.2-.35-.46-.45-.8-.75-.96-1.61-.9-.43.03-.7.2-1.07.65-.32.39-.33.42-.33 1.08 0 .38-.04.8-.07.92-.06.2-.04.24.17.33.18.07.34.07.6 0 .2-.06.4-.08.45-.05.23.14-.06 1.02-.47 1.4-.19.17-.3.2-.7.2-.27 0-.6-.03-.75-.07-.26-.07-.27-.06-.41.38a4.6 4.6 0 0 1-.95 1.55c-.06.02-.18-.06-.27-.19zm-16.2-6.98c.2-.61.27-1.08.36-2.2.06-.77.08-1.46.05-1.54-.03-.09-.13-.13-.24-.12-.17.03-.2.1-.29.62-.05.33-.2.92-.35 1.32-.55 1.5-.58 1.95-.18 2.4.14.17.3.3.33.3.04 0 .19-.35.32-.78zm-1-.72c.06-.31.23-.87.36-1.25.29-.76.43-1.71.29-1.89-.06-.07-.19-.1-.39-.06-.16.02-.34 0-.4-.05-.17-.14-.33.04-.5.55-.07.24-.25.64-.4.89-.34.61-.42.99-.27 1.34.06.16.15.28.19.28.03 0 .26-.52.5-1.16.63-1.7.56-1.54.6-1.32.02.1-.13.6-.33 1.1-.2.5-.37 1.1-.39 1.32-.03.36 0 .42.22.66.15.14.3.24.34.21.04-.02.13-.3.19-.62zm-1.07-2.14c.38-.74.49-1.2.3-1.3-.2-.14-1 1.1-1 1.55 0 .75.23.67.7-.25zm-.62-.57c.41-.46.54-.73.47-.99-.08-.32-.32-.27-.67.15l-.65.75c-.18.21-.3.41-.27.45.03.03.23.04.44.02.31-.04.44-.1.68-.38zm-1.43.15c.21-.06.4-.21.63-.52.18-.24.46-.56.6-.73.3-.31.34-.46.18-.6-.16-.12-.38 0-1.16.67-.4.33-.86.68-1.04.77-.37.19-.4.26-.13.4.24.11.54.12.92.01zm-.73-.63c.16-.06.53-.35.83-.63.3-.27.66-.56.81-.64.16-.08.26-.2.26-.3 0-.39-1.16-.1-1.96.47l-.93.64c-.22.15-.38.3-.35.35.14.24.89.3 1.34.11zm5.64-.8a9.02 9.02 0 0 1 1.66-2.12c.43-.4.87-.67 1.9-1.2 1.24-.62 1.33-.68 1.43-.98.06-.17.32-.54.59-.83.63-.68.72-.82.97-1.56.22-.64.34-.85.49-.85.13 0 .01.72-.21 1.3-.13.34-.37.68-.75 1.1-.63.68-.8.94-.67 1.03.15.09.49-.03.67-.23.1-.1.3-.42.43-.7.14-.28.33-.6.42-.73.1-.11 0 .15-.2.6a4.6 4.6 0 0 0-.39.98c0 .3.09.46.26.46.12 0 .16-.06.16-.23 0-.12.11-.45.25-.74.13-.28.29-.69.35-.9.06-.2.12-.33.14-.28.04.12-.05.45-.3 1.13-.23.6-.24 1.2-.02 1.4.16.13.17.13.29-.06.2-.32.3-.8.4-2.02.1-1.38.16-1.65.38-1.65.15 0 .16.06.13.57-.03.73.06.74.68.08a9.92 9.92 0 0 0 1.33-1.84c.06-.26-.3-.11-.53.22-.29.44-.35.43-.13-.02l.19-.35-.18-.15c-.1-.08-.18-.2-.18-.25 0-.25.46-.85.95-1.24.78-.61 1.14-1.02 1.34-1.53.17-.42.34-.55.46-.35.07.1-.29.87-.62 1.32-.14.2-.5.55-.8.8-.66.55-.8.74-.65.85.3.18.67-.06 1.25-.8.1-.14.21-.23.24-.2s-.12.27-.34.53c-.22.26-.4.5-.4.54 0 .03.09.13.18.22.18.16.18.16.33-.03.22-.26.26-.24.26.13 0 .35.12.53.34.53.11 0 .16-.15.25-.76.05-.41.15-.93.22-1.14.06-.21.14-.61.17-.9.03-.27.1-.57.16-.65.1-.14.12-.14.29 0 .17.16.17.16.34-.12.1-.16.18-.33.18-.38 0-.06-.26-.11-.66-.14-1.16-.07-2.72-.9-2.96-1.56-.05-.13-.2-.67-.33-1.2-.12-.54-.29-1.1-.36-1.26-.1-.2-.1-.3-.03-.37.07-.08.14-.07.26.05.23.2.6 1.25.6 1.68 0 .44.24.96.57 1.26a4.89 4.89 0 0 0 2.92.89c.31-.06.75-.34.75-.49 0-.04-.32-.08-.7-.08-.99 0-1.33-.18-1.86-.99a2.71 2.71 0 0 0-.66-.74c-.27-.14-.34-.42-.12-.5.22-.08.39.06.89.77.62.87.88 1.04 1.58 1.04.78 0 1.19-.14 1.6-.57.34-.35.43-.53 1-2.09.09-.24.35-.63.64-.94.27-.3.5-.62.53-.72.06-.22-.15-.34-.62-.34-.35 0-.66-.11-.78-.28-.03-.06-.06-.3-.06-.54 0-.34-.04-.46-.14-.5-.08-.03-.54.06-1.04.21-.84.26-.97.27-2.04.25-1.82-.03-3.25.3-3.99.93-.32.28-.36.3-.45.16-.16-.21-.41-.17-1.13.19-.98.5-1.9 1.24-3.01 2.46a15.3 15.3 0 0 0-2.12 2.72 15.37 15.37 0 0 0-2.1 5.05 7.96 7.96 0 0 1-2.1 4.03c-.42.44-.77.72-1.18.94-.33.17-.6.33-.6.35l.43.9c.77 1.53.91 1.67 1.71 1.68.24 0 .67.05.95.12.28.06.54.1.59.1.04-.01.18-.22.31-.46zm2.08-3.06c.1-.12.81-.5 1.6-.86l.48-.22c.03-.02.06 0 .06.04 0 .08-.84.52-2.16 1.12-.04.02-.04-.02.02-.08zm-.9-2.16a8.39 8.39 0 0 0 .85-2.48c.28-1.3.95-2.98 1.19-2.98.12 0 .08.17-.14.55-.2.33-.37.89-.92 2.95-.23.85-.75 2-.9 2-.05 0-.09-.01-.09-.04zm7.66-1.56c.08-.1.17-.17.2-.17.02 0-.03.08-.12.17a.67.67 0 0 1-.2.17c-.02 0 .03-.08.12-.17zm3-2.64c0-.07.06-.2.13-.29.13-.16.13-.15.08.05-.07.26-.2.42-.2.24zm0-.84c0-.07.06-.2.13-.3.1-.12.12-.13.12-.03 0 .07-.05.2-.12.29-.1.12-.13.13-.13.04zm-8.13-1c0-.21 1.57-1.78 1.68-1.67.03.03-.24.35-.6.7-.37.36-.73.74-.8.85-.12.2-.28.26-.28.13zm2.46-2.18a7.5 7.5 0 0 1 1.82-1.38c.12 0 .02.25-.12.3-.23.06-1.17.68-1.47.95-.12.12-.23.18-.23.13zm5.19-2.82c-.49-.3-.66-.87-.4-1.36.2-.4.71-.67.71-.38 0 .07-.03.13-.08.13s-.16.07-.26.17c-.17.17-.23.7-.1.9.14.2.5.37.8.37.36 0 .45.2.13.28a.88.88 0 0 1-.8-.11zm.42-.81c-.19-.13-.24-.4-.14-.67.06-.15.55-.18.8-.05.3.16.35.38.16.63-.2.25-.54.29-.82.09zm.63-.31c.06-.1-.13-.24-.34-.24-.18 0-.3.25-.15.34.13.08.41.02.49-.1zM6.82 23.55a6.24 6.24 0 0 1 1.9-1.02c.3-.08.37-.14.34-.28a.42.42 0 0 0-.16-.26c-.22-.14-1.46.3-2.2.8-.36.23-.83.49-1.06.57-.22.09-.42.2-.43.24-.06.16.34.36.7.36.3 0 .46-.07.9-.41zm9.28-.6c.14-.3.26-.62.26-.69 0-.07.14-.42.3-.8.16-.37.3-.7.3-.73 0-.04-.12-.02-.26.02-.2.08-.27.18-.42.63-.1.3-.22.57-.26.6-.1.05-.5.95-.5 1.1 0 .17.15.46.24.46.04 0 .19-.26.34-.58zm-10.42.25c.23-.09.71-.36 1.08-.61a5.4 5.4 0 0 1 1.33-.66c.6-.19.78-.34.57-.46-.07-.05-.69.07-1.78.35-1.05.26-2.37.96-2.37 1.26 0 .14.27.27.57.28.1 0 .37-.07.6-.16zm9.93-.85c.23-.31.5-.94.5-1.14 0-.07-.05-.13-.12-.13-.35 0-1 1.4-.76 1.64.07.06.07.06.38-.37zm-.6-.14c.09-.21.15-.41.12-.44-.07-.07-.55.44-.55.6 0 .11.04.16.23.23.01 0 .1-.17.2-.39zm-1.92-8.29a.87.87 0 0 0 .05-.26.9.9 0 0 1 .18-.36c.1-.13.19-.35.2-.48 0-.14.05-.29.11-.33.06-.05.12-.19.14-.3.01-.13.1-.32.2-.42.24-.26.24-.48.01-.54-.35-.09-.8.27-.59.48.06.06 0 .14-.16.24-.3.18-.33.32-.09.39.26.06.2.2-.07.2a.6.6 0 0 0-.4.16c-.13.15-.14.2-.05.35.06.1.1.18.09.19l-.35.16c-.31.14-.48.35-.37.46.05.05.59.16.91.18a.2.2 0 0 0 .2-.12zm1.37-2.94c.07-.11.1-.27.07-.34-.03-.1 0-.14.12-.14.17 0 .27-.15.27-.41 0-.08.09-.18.2-.23a.4.4 0 0 0 .2-.26c.02-.1.1-.2.2-.23.19-.05.22-.38.06-.58-.16-.2-.63-.5-.78-.5-.22 0-.18.55.06.71.15.11.16.14.05.14-.08 0-.17-.04-.2-.08-.04-.07-.1-.06-.17 0-.13.11-.04.44.2.7.14.17.13.17-.14.03-.22-.12-.3-.13-.4-.05-.15.12-.16.43-.02.57.08.08.06.1-.08.1-.3 0-.4.52-.13.67.23.14.34.11.49-.1zm1.6-2.3a.4.4 0 0 0-.04-.3c-.11-.21-.1-.3.02-.18.06.05.17.1.25.1.3 0 .17-.36-.3-.83-.4-.4-.5-.45-.6-.36-.19.16-.16.28.12.55.31.3.28.36-.08.17-.33-.17-.5-.11-.5.17 0 .14.07.25.23.33.12.07.3.2.39.3.19.2.43.23.5.04zm.72-.95c0-.24-.29-.66-.63-.92-.26-.2-.32-.22-.39-.12-.12.2-.1.24.36.72.45.48.67.58.66.32zm.38-.28c.06-.08.02-.14-.49-1.02-.3-.52-.5-.6-.55-.2-.01.2.07.37.39.77.4.51.55.62.65.45zm.37-.44a7.4 7.4 0 0 0-.58-1.62c-.08-.1-.33.18-.33.38 0 .16.44 1.1.61 1.32.11.14.27.1.3-.08zm.52-.36c.19-.2.19-.2.06-.74-.08-.3-.14-.64-.14-.77 0-.12-.04-.25-.1-.28-.12-.08-.58.42-.58.64 0 .21.43 1.36.5 1.36.04 0 .15-.1.26-.2zm.63-.65a4.8 4.8 0 0 0-.33-1.43c-.11-.03-.3.33-.3.6 0 .47.34 1.14.55 1.07.05-.02.08-.13.08-.24z"/>
  <path fill="#0352b3" d="M19.7 50.67c-1.19-.15-2.69-.5-3.8-.89a32.53 32.53 0 0 1-3.8-1.63 30.08 30.08 0 0 1-2.85-1.98 32.8 32.8 0 0 1-3.65-3.76 27.42 27.42 0 0 1-4.16-8.33 17.6 17.6 0 0 1-.53-4.66c-.02-.88-.06-1.8-.09-2.03-.02-.23-.1-2.06-.16-4.06l-.22-5.85C.26 13.04.1 7.06.04 3.58L0 0h45.17l-.04 5.36c-.03 2.94-.1 6.55-.15 8.02l-.22 7.28c-.33 11.55-.3 11.14-.75 12.95a26.96 26.96 0 0 1-1.98 5.49 23.5 23.5 0 0 1-8.14 8.65 23.65 23.65 0 0 1-7.16 2.72c-1.62.33-5.23.43-7.02.2zm5.17-1.01c2.01-.28 2.43-.38 4.53-1.05a20.4 20.4 0 0 0 4.36-2.08c.19-.15.46-.34.6-.41.15-.08.32-.2.39-.25A8.78 8.78 0 0 0 36 44.82a20.78 20.78 0 0 0 4.7-5.54c.18-.2.71-1.33.71-1.5 0-.08.1-.28.2-.44.5-.73 1.16-2.87 1.57-5.04.15-.78.2-1.5.27-4.48.05-1.95.1-3.57.12-3.6.02-.03.04-.83.05-1.79.01-.95.05-2.17.09-2.7.03-.54.08-2.39.11-4.1.03-1.73.07-3.82.1-4.64.04-1.51 0-1.73-.26-1.51-.07.06-.13.06-.16.02-.07-.11.03-.61.12-.61.05 0 .08-.1.08-.21 0-.13.05-.21.13-.21.18 0 .15-.37-.05-.56-.14-.13-.2-.14-.34-.05-.2.12-.64.13-.71.02-.03-.05-.13-.05-.26 0-.26.1-.32 0-.25-.39.07-.36-.06-.4-.28-.06-.08.13-.27.36-.42.51-.33.33-.35.44-.08.44.28 0 .73.24.73.39 0 .07-.08.12-.2.12-.14 0-.27.08-.36.22-.1.17-.2.2-.36.18a.74.74 0 0 0-.43.07c-.12.06-.35.12-.52.12-.25 0-.35-.05-.49-.24-.21-.3-.22-.38-.03-.7.13-.22.13-.25 0-.4a.61.61 0 0 1-.15-.35c0-.15-.03-.17-.14-.12-.16.07-.32.07-1.03-.01l-.45-.06.18.35c.19.36.32.43.4.22.06-.17.36-.16.42 0 .03.08-.04.21-.17.34-.26.24-.27.25-.06.44.2.18.61 1.36 1.16 3.28.54 1.87.61 2.18.7 3.01l.18 1.4c.15 1.17.1 1.97-.27 4.9-.16 1.3-.45 2.83-.7 3.73-.06.24-.2.8-.3 1.27-.1.47-.3 1.23-.44 1.7l-.42 1.42a24.66 24.66 0 0 1-2.39 5.35l-.7 1.14c-.21.36-1.3 2.03-1.97 3.05-.26.4-1.32 1.87-2.04 2.82-.82 1.1-2.14 2.51-2.34 2.51-.07 0-.3-.16-.52-.36-.66-.6-1.4-1.2-1.67-1.38a8.7 8.7 0 0 1-.72-.55 5.47 5.47 0 0 0-.66-.5 7.65 7.65 0 0 1-.72-.5c-.6-.45-.63-.48-2.09-1.53l-2.1-1.5c-1.38-.95-1.35-.89-.59-1.7 1.05-1.1 1.1-1.15 1.3-1.56.31-.6.28-.95-.13-1.36-.3-.3-.38-.33-.64-.29a3.7 3.7 0 0 0-1.31.82c0 .03-.27.26-.6.5-.33.25-.62.5-.64.56-.03.07-.24.26-.48.43-.24.18-.52.38-.6.47l-1.32 1.15A119 119 0 0 0 13.8 39c-.46.43-.87.78-.92.78-.04 0-.2.13-.35.28l-.75.73c-.27.25-.49.49-.49.53 0 .04-.1.11-.22.16s-.44.24-.72.43c-.57.4-.78.4-1.07-.03-.1-.15-.31-.41-.47-.57a2.46 2.46 0 0 1-.43-.64 2.16 2.16 0 0 0-.3-.5c-.08-.1-.2-.3-.26-.47l-.1-.3 1.24-1.27c.68-.7 1.63-1.69 2.1-2.2.47-.51 1.1-1.18 1.41-1.48.31-.3 1.78-1.8 3.27-3.33s3.7-3.79 4.9-5c1.22-1.23 2.65-2.7 3.18-3.27.54-.57 1.43-1.5 2-2.07a54.1 54.1 0 0 0 1.47-1.53c.25-.28 1.2-1.27 2.1-2.2.91-.93 1.98-2.07 2.37-2.53.4-.45.77-.85.84-.87.06-.03.27-.24.46-.48s.67-.78 1.07-1.19a21.9 21.9 0 0 0 1.76-2.04c.24-.29.26-.48.08-.67-.13-.12-.12-.14.02-.14.1 0 .25-.08.35-.2.15-.15.18-.26.14-.58-.02-.23 0-.42.05-.45.05-.03-.06-.2-.26-.4l-.36-.34-.18.23c-.13.16-.23.21-.33.17-.08-.03-.15-.08-.15-.1a1 1 0 0 0-.18-.27l-.17-.21.05.22c.03.15 0 .29-.12.42-.16.19-.18.2-.28.06a.51.51 0 0 0-.28-.18c-.29-.04-.37-.15-.42-.56-.06-.45-.19-.55-.53-.42-.19.07-.26.33-.09.33.07 0 .06.04 0 .12-.07.07-.1.19-.06.26a.4.4 0 0 1 0 .25c-.04.1-.08.1-.2.03-.2-.12-.4.02-.44.3-.02.1-.09.18-.16.19l-.22.02c-.06 0-.12.18-.13.37-.04.49-.27.54-.45.1-.16-.4-.16-.47.02-.44.12.02.15-.04.15-.27s-.03-.3-.15-.27c-.23.04-.43-.53-.37-1.06.02-.25 0-.45-.04-.45s-.08.06-.08.13-.07.25-.17.4c-.09.15-.16.34-.16.42 0 .19-.16.28-.28.16-.12-.11-.4.12-.4.33 0 .08-.06.2-.13.25-.06.06-.23.4-.37.75-.36.93-.55 1.26-.9 1.6-.18.17-.37.44-.44.6-.07.17-.3.5-.51.74a3.6 3.6 0 0 0-.54.77 3 3 0 0 1-.44.68c-.26.3-.32.44-.51 1.45-.13.62-.23 1.23-.23 1.35 0 .4-.1.62-.3.67-.25.06-.7-.09-1.05-.35a1.07 1.07 0 0 0-.43-.21c-.07 0-.35.3-.6.65a9.65 9.65 0 0 1-1.67 1.82c-.36.29-.38.33-.44.88-.08.74-.44 1.81-.67 2-.1.08-.24.12-.32.09-.14-.05-.82-.47-1.3-.8-.36-.24-1.01-.21-1.27.05-.34.33-.64.96-1.04 2.17-.4 1.16-.46 1.28-.87 1.77-.2.23-.29.27-.46.23-.22-.06-.5-.43-.65-.9-.14-.38-.42-.68-.66-.68-.42 0-.73.92-.88 2.62a11.9 11.9 0 0 1-.6 3.48c0 .09-.05.21-.12.28a.46.46 0 0 0-.13.27c0 .2-.24.46-.44.46-.09 0-.48-.31-.87-.7l-1.35-1.29c-.4-.38-.67-.7-.73-.89-.4-1.22-.38-1.22-1.5-1.34-.49-.06-.68-.13-1-.36a4.38 4.38 0 0 0-.7-.4 1.45 1.45 0 0 1-.46-.35c-.11-.13-.33-.28-.5-.33a1.82 1.82 0 0 1-.63-.48c-.18-.22-.4-.38-.5-.38-.24 0-.55-.23-.55-.42 0-.34 1.65-1.53 2.5-1.8.71-.23 1.75-.47 2.33-.53.75-.08 1.36-.41 2.17-1.17a6.4 6.4 0 0 0 1.98-3.81c.04-.23.12-.54.17-.7.13-.41.06-.54-.3-.54-.85 0-1.24-.7-.76-1.37.66-.91 1.68-2.53 1.83-2.9.2-.49.58-1.76.58-1.91 0-.07.12-.3.26-.51.13-.21.25-.43.25-.48 0-.14.35-.73.47-.81a.91.91 0 0 0 .21-.34c.06-.15.2-.36.3-.46.12-.1.2-.26.2-.34 0-.08.14-.29.31-.46l.3-.31-.23-.12c-.22-.12-.46-.6-.46-.93 0-.14.31-.38.39-.3.02.02.05.2.07.4.05.43.17.6.32.44.08-.08.08-.14 0-.27-.05-.09-.08-.22-.05-.3.03-.07 0-.18-.05-.25-.09-.1-.07-.14.11-.22.17-.08.2-.14.15-.24-.05-.08-.03-.21.04-.37.13-.25.12-.27-.25-.33-.18-.03-.24-.12-.44-.67-.17-.48-.37-.6-1.15-.64-.65-.04-.87.1-.59.35.1.09.18.1.22.05.06-.1.55-.13.55-.04 0 .03-.08.12-.18.2-.23.18-.14.34.18.34.16 0 .3.08.42.23.27.34.21.7-.07.43-.08-.09-.15-.05-.33.17-.17.2-.3.28-.48.28-.32 0-.39.05-.62.42-.29.48-.46.6-.77.54-.27-.06-.28-.07-.22-.36.06-.3.06-.3-.12-.15-.2.19-.24.47-.05.47.07 0 .13.04.13.1 0 .04.1.18.23.3.16.15.23.3.23.48 0 .25.02.27.28.24.3-.03.35.07.14.28-.16.15-.17.15-.38.04-.1-.05-.17-.05-.17 0 0 .04-.09.1-.2.12-.12.03-.22.11-.22.18 0 .07-.12.18-.26.26-.22.11-.26.17-.22.36.06.31-.08.57-.24.44-.06-.06-.15-.08-.2-.05-.04.03-.1 0-.12-.06-.02-.06.03-.16.11-.21.14-.08.14-.13.06-.36a.64.64 0 0 1 0-.52c.08-.2.08-.3.01-.38-.14-.17-.19-.15-.62.27-.42.4-.5.4-.6.02-.04-.18-.02-.24.1-.28.1-.03.23-.09.3-.13.09-.04.21-.08.28-.08.17 0 .17-.37 0-.54a.34.34 0 0 0-.34-.09c-.16.04-.2.02-.2-.08 0-.08.05-.16.12-.19.07-.03.13-.15.13-.27l.01-.46c0-.31-.15-.49-.45-.49-.21 0-.24-.02-.24-.27 0-.32-.2-.66-.38-.66-.16 0-.16.12 0 .26.08.06.11.16.09.23-.07.19.03.44.17.44.16 0 .16.25 0 .31-.15.06-.18.37-.04.37.05 0 .07.06.05.13-.03.08.04.21.2.35.2.19.23.24.14.42-.06.13-.14.2-.22.18l-.25-.07c-.07-.02-.19.09-.27.23-.15.26-.15.27 0 .42.1.08.17.19.17.24 0 .13-.6.39-.9.39-.13 0-.38.04-.55.08-.3.09-.31.1-.23.36.05.15.1.33.1.4.02.07.14.14.26.16.18.02.25-.02.28-.15.05-.2.12-.22.26-.07.08.07.15.05.32-.1.15-.15.24-.18.3-.11.1.1.1.15-.22.66-.11.18-.2.45-.2.6-.01.34-.07.38-.34.25-.13-.07-.3-.09-.39-.05a.64.64 0 0 1-.38-.02.85.85 0 0 0-.25-.06c-.03 0-.06-.03-.07-.08-.04-.1.32-.27.42-.2.04.01.07-.01.07-.06 0-.05-.05-.09-.1-.09-.06 0-.25-.07-.42-.15-.32-.14-.44-.36-.2-.36.07 0 .13-.07.13-.17 0-.14-.06-.17-.32-.17-.23 0-.35-.04-.43-.17-.1-.15-.13-.16-.24-.07a.64.64 0 0 1-.3.12c-.1 0-.2.06-.22.11-.06.18-.17.1-.12-.08.02-.11 0-.2-.09-.25-.1-.06-.12-.14-.07-.31.05-.19.13-.24.4-.3.31-.06.36-.1.4-.34.05-.35.01-.38-.2-.19-.1.09-.2.13-.22.1-.03-.02.03-.11.13-.2.23-.2.23-.4 0-.32-.24.08-.34-.02-.26-.24.05-.13.14-.18.32-.18.22 0 .24-.03.23-.28a.83.83 0 0 0-.12-.41c-.1-.12-.12-.12-.22.01-.06.09-.16.13-.25.1a.28.28 0 0 0-.25.03c-.12.1-.3.04-.3-.1 0-.03.1-.1.22-.12.27-.07.3-.46.04-.46-.1 0-.2.06-.22.13-.03.07-.08.12-.12.12-.13 0-.42-.28-.42-.4 0-.06-.06-.1-.13-.1s-.12-.08-.12-.17c0-.21-.07-.22-.27-.04-.12.11-.18.12-.27.04-.09-.07-.22-.07-.5 0-.2.04-.45.08-.56.08-.19 0-.2-.03-.16-.34.04-.3.03-.34-.12-.34-.11 0-.16-.04-.14-.14.04-.2.3-.25.34-.06.02.12.05.11.19-.04.16-.18.16-.18-.06-.18a.43.43 0 0 1-.35-.21c-.15-.24-.56-.3-.56-.09 0 .07-.05.1-.12.08-.06-.02-.19.05-.28.17a.53.53 0 0 1-.4.22c-.21 0-.3.19-.13.3.05.02.08.09.08.13 0 .05-.03.06-.07.04-.15-.1-.2.12-.06.26.08.07.12.16.09.2-.03.05 0 .17.06.27s.1.28.08.39c-.01.12.02.19.11.19.07 0 .13.05.13.12 0 .07-.03.13-.08.13s-.09.04-.09.1c0 .05.06.07.13.04.15-.06.16-.04.03.24-.08.18-.14.21-.3.17l-.21-.05.05 1.8.1 4.05c.04 2.8.11 5.34.17 6.56.1 2.04.2 5.14.29 7.8.04 1.53.1 3.01.12 3.3.03.27.06 1.17.08 1.98.08 3.1.71 5.63 2.12 8.47.69 1.4 1.03 1.96 2.04 3.31l.74 1c.25.36 2.3 2.43 2.83 2.86.73.6 1.12.88 1.72 1.2.11.07.29.18.38.27.1.08.3.18.44.23a13.97 13.97 0 0 0 4.38 1.88l1.2.34c.91.27 3.38.58 4.73.59.66 0 1.6-.05 2.12-.12zM34.62 9.6c-.06-.07.01-.2.12-.2.04 0 .08.06.08.13 0 .13-.1.16-.2.07zm8.35-.43c-.06-.2-.07-.37-.01-.47.09-.17.2-.2.28-.06.07.1-.04.84-.11.84-.03 0-.1-.14-.16-.31zm-11.14.17c-.03-.04-.02-.13.02-.19.05-.08.08-.08.13 0 .04.05.03.13-.02.18-.05.05-.1.05-.13 0zm2.31-.2c0-.05.04-.07.09-.04.04.03.08.07.08.1 0 .01-.04.03-.08.03-.05 0-.09-.04-.09-.1zm.9-.05c-.15-.15-.15-.38 0-.43.08-.03.29.31.29.49 0 .12-.14.1-.3-.06zm7.2.08c-.1-.1-.06-.2.07-.2.07 0 .13.04.13.08 0 .11-.13.19-.2.12zm-8.18-.36c-.1-.07-.1-.1-.02-.19.08-.08.14-.07.3.08.17.18.17.19.01.19a.66.66 0 0 1-.3-.08zM7.8 8.3c0-.05.04-.09.08-.09.05 0 .09.04.09.09 0 .04-.04.08-.09.08a.08.08 0 0 1-.08-.08zM30.16 8c0-.08.04-.11.09-.08.04.03.08.08.08.13 0 .04-.04.08-.08.08-.05 0-.09-.06-.09-.13zM6.65 7.98c-.2-.04-.27-.28-.08-.28.07 0 .23-.05.36-.12.13-.07.25-.11.26-.1a.8.8 0 0 1-.04.27c-.07.26-.17.3-.5.23zM11.2 6.3c0-.07.04-.1.08-.08.05.03.09.1.09.13 0 .05-.04.08-.09.08-.04 0-.08-.05-.08-.13zm2.88-.78a1.43 1.43 0 0 1-.28-.23c-.1-.13-.08-.63.02-.63.12 0 .1-.31-.02-.51-.22-.36.28-.67.59-.36.08.1.23.2.32.26.11.05.18.18.2.35.02.3-.08.33-.32.08-.2-.22-.3-.17-.39.2l-.09.4c-.02.07.05.23.14.36.2.26.14.29-.17.08zM4.8 5.16c-.02-.04.03-.08.13-.08s.17.04.17.08c0 .05-.05.09-.12.09-.07 0-.15-.04-.18-.09zm1.15.06c0-.02.05-.06.12-.09.07-.02.13 0 .13.04s-.06.08-.13.08-.12-.02-.12-.03zm-1.84-.6c-.13-.15-.14-.3-.02-.28.2.04.3-.25.17-.57-.06-.17-.09-.33-.07-.35.09-.08.32.08.32.22 0 .08.06.17.13.2.16.06.16.47-.01.71-.15.22-.37.24-.52.06zm1.58.06c-.17-.07-.25-.2-.25-.43 0-.1-.04-.17-.09-.14-.04.03-.08.14-.08.25 0 .11-.04.23-.1.26-.16.1-.26-.1-.2-.46.05-.3.1-.35.27-.35.1 0 .2.04.2.09 0 .04.09.06.2.03.12-.03.23 0 .27.06.1.15.1.5.02.55-.04.02-.05.08-.02.12.05.09-.02.1-.22.02zm-2.35-.1c-.09-.05-.08-.09.02-.17.11-.1.11-.13 0-.3-.11-.17-.11-.2 0-.3a.4.4 0 0 0 .13-.26c0-.1.05-.16.11-.16.32 0 .45.62.15.7-.2.05-.23.3-.07.47.08.07.06.1-.06.1a.62.62 0 0 1-.28-.08zm-1.06-.57c-.1-.1-.06-.2.06-.2.07 0 .14.06.17.13.05.12-.12.18-.23.07zm12.74-.1c-.07-.12-.06-.2.04-.34.17-.24.25-.18.24.16-.01.33-.16.42-.28.18zM4.8 3.47c-.02-.05-.03-.12 0-.16.02-.04-.01-.14-.08-.23-.16-.21-.16-.46 0-.46.07 0 .13.06.13.13s.04.13.1.13c.05 0 .07.1.04.25-.03.15-.02.26.03.26s.07.03.04.08c-.03.05-.09.09-.13.09-.04 0-.1-.04-.13-.09zm-1.14-.42c-.08-.15-.06-.17.08-.17.1 0 .18.05.18.12 0 .2-.16.23-.26.05zm11.85-.38c0-.08.08-.13.22-.13.27 0 .24.2-.03.24-.12.02-.19-.02-.19-.1zm14.24 40.4c.79-.9 1.54-1.85 2.04-2.56.26-.37.66-.9.89-1.16.22-.26.6-.8.82-1.18.22-.39.62-1.03.89-1.42.26-.4.63-1 .8-1.32l.43-.72c.19-.22 1.55-2.91 1.87-3.7.31-.74.99-2.8 1.1-3.34l.3-1.34a51.74 51.74 0 0 0 .71-3.68c.52-2.83.63-4.87.36-6.69-.48-3.19-1.75-7.07-2.3-7.07-.08 0-.13.03-.13.06 0 .1-1.34 1.83-2.05 2.64a128.83 128.83 0 0 1-5.53 5.85c-2.89 2.92-4.51 4.6-6.65 6.86-.76.81-2.12 2.2-3 3.1a351.28 351.28 0 0 0-6.68 6.8c-.3.37-1.47 1.6-3.5 3.67l-1.57 1.6.14.3c.18.38.81 1.28 1.04 1.48.16.15.18.14.54-.1.2-.14.64-.48.97-.77.33-.29.95-.82 1.4-1.18.44-.36.96-.83 1.16-1.05.2-.21.7-.66 1.1-1 .41-.34 1.13-.96 1.6-1.38 1.8-1.6 2.11-1.88 2.69-2.36.62-.52 1.14-.8 1.47-.81.3 0 1.06.38 1.35.68.39.41.56.95.44 1.34-.21.65-.54 1.15-1.18 1.82-.37.39-.68.73-.68.76 0 .03.4.31.87.62.48.3 1.06.72 1.3.9.23.2.72.54 1.08.78.36.23 1.05.74 1.53 1.14.48.4 1.3 1.04 1.83 1.44l1.46 1.12c.28.22.54.4.57.4.04 0 .27-.23.52-.53zm-1.27-7.75a8.08 8.08 0 0 1-.81-1.69c-.06-.29-.16-.32-.52-.19-.36.14-.87-.04-1.28-.46-.3-.3-.36-.41-.36-.7 0-.18.02-.36.05-.38.02-.03.22.03.42.13.3.14.42.16.6.1.17-.07.23-.14.2-.26-.02-.09-.04-.54-.04-1 0-.93-.12-1.2-.62-1.56-.72-.5-1.3-.42-2.1.29-.64.56-.74.54-.88-.18-.38-1.85-.3-2.36.5-3.16.53-.53.74-.63 1.38-.62.53 0 .65.05 1.37.58.28.2.54.37.58.37.05 0 .06-.15.03-.32-.02-.18-.01-.62.03-.99.05-.53.13-.8.42-1.35.39-.77 1.26-1.95 1.46-1.98.18-.04 1.38 1.7 1.6 2.33.15.38.19.69.2 1.4 0 .5.02.9.05.9.03 0 .1-.05.16-.12.06-.06.28-.24.5-.38.36-.23.48-.26 1.04-.25.8 0 1.16.16 1.73.77.67.7.75.9.73 1.84a2.5 2.5 0 0 1-.3 1.41c-.17.35-.34.63-.38.63-.05 0-.2-.2-.35-.46-.45-.8-.75-.96-1.61-.9-.43.03-.7.2-1.07.65-.32.39-.33.42-.33 1.08 0 .38-.04.8-.07.92-.06.2-.04.24.17.33.18.07.34.07.6 0 .2-.06.4-.08.45-.05.23.14-.06 1.02-.47 1.4-.19.17-.3.2-.7.2-.27 0-.6-.03-.75-.07-.26-.07-.27-.06-.41.38a4.6 4.6 0 0 1-.95 1.55c-.06.02-.18-.06-.27-.19zm-16.2-6.98c.2-.61.27-1.08.36-2.2.06-.77.08-1.46.05-1.54-.03-.09-.13-.13-.24-.12-.17.03-.2.1-.29.62-.05.33-.2.92-.35 1.32-.55 1.5-.58 1.95-.18 2.4.14.17.3.3.33.3.04 0 .19-.35.32-.78zm-1-.72c.06-.31.23-.87.36-1.25.29-.76.43-1.71.29-1.89-.06-.07-.19-.1-.39-.06-.16.02-.34 0-.4-.05-.17-.14-.33.04-.5.55-.07.24-.25.64-.4.89-.34.61-.42.99-.27 1.34.06.16.15.28.19.28.03 0 .26-.52.5-1.16.63-1.7.56-1.54.6-1.32.02.1-.13.6-.33 1.1-.2.5-.37 1.1-.39 1.32-.03.36 0 .42.22.66.15.14.3.24.34.21.04-.02.13-.3.19-.62zm-1.07-2.14c.38-.74.49-1.2.3-1.3-.2-.14-1 1.1-1 1.55 0 .75.23.67.7-.25zm-.62-.57c.41-.46.54-.73.47-.99-.08-.32-.32-.27-.67.15l-.65.75c-.18.21-.3.41-.27.45.03.03.23.04.44.02.31-.04.44-.1.68-.38zm-1.43.15c.21-.06.4-.21.63-.52.18-.24.46-.56.6-.73.3-.31.34-.46.18-.6-.16-.12-.38 0-1.16.67-.4.33-.86.68-1.04.77-.37.19-.4.26-.13.4.24.11.54.12.92.01zm-.73-.63c.16-.06.53-.35.83-.63.3-.27.66-.56.81-.64.16-.08.26-.2.26-.3 0-.39-1.16-.1-1.96.47l-.93.64c-.22.15-.38.3-.35.35.14.24.89.3 1.34.11zm5.64-.8a9.02 9.02 0 0 1 1.66-2.12c.43-.4.87-.67 1.9-1.2 1.24-.62 1.33-.68 1.43-.98.06-.17.32-.54.59-.83.63-.68.72-.82.97-1.56.22-.64.34-.85.49-.85.13 0 .01.72-.21 1.3-.13.34-.37.68-.75 1.1-.63.68-.8.94-.67 1.03.15.09.49-.03.67-.23.1-.1.3-.42.43-.7.14-.28.33-.6.42-.73.1-.11 0 .15-.2.6a4.6 4.6 0 0 0-.39.98c0 .3.09.46.26.46.12 0 .16-.06.16-.23 0-.12.11-.45.25-.74.13-.28.29-.69.35-.9.06-.2.12-.33.14-.28.04.12-.05.45-.3 1.13-.23.6-.24 1.2-.02 1.4.16.13.17.13.29-.06.2-.32.3-.8.4-2.02.1-1.38.16-1.65.38-1.65.15 0 .16.06.13.57-.03.73.06.74.68.08a9.92 9.92 0 0 0 1.33-1.84c.06-.26-.3-.11-.53.22-.29.44-.35.43-.13-.02l.19-.35-.18-.15c-.1-.08-.18-.2-.18-.25 0-.25.46-.85.95-1.24.78-.61 1.14-1.02 1.34-1.53.17-.42.34-.55.46-.35.07.1-.29.87-.62 1.32-.14.2-.5.55-.8.8-.66.55-.8.74-.65.85.3.18.67-.06 1.25-.8.1-.14.21-.23.24-.2s-.12.27-.34.53c-.22.26-.4.5-.4.54 0 .03.09.13.18.22.18.16.18.16.33-.03.22-.26.26-.24.26.13 0 .35.12.53.34.53.11 0 .16-.15.25-.76.05-.41.15-.93.22-1.14.06-.21.14-.61.17-.9.03-.27.1-.57.16-.65.1-.14.12-.14.29 0 .17.16.17.16.34-.12.1-.16.18-.33.18-.38 0-.06-.26-.11-.66-.14-1.16-.07-2.72-.9-2.96-1.56-.05-.13-.2-.67-.33-1.2-.12-.54-.29-1.1-.36-1.26-.1-.2-.1-.3-.03-.37.07-.08.14-.07.26.05.23.2.6 1.25.6 1.68 0 .44.24.96.57 1.26a4.89 4.89 0 0 0 2.92.89c.31-.06.75-.34.75-.49 0-.04-.32-.08-.7-.08-.99 0-1.33-.18-1.86-.99a2.71 2.71 0 0 0-.66-.74c-.27-.14-.34-.42-.12-.5.22-.08.39.06.89.77.62.87.88 1.04 1.58 1.04.78 0 1.19-.14 1.6-.57.34-.35.43-.53 1-2.09.09-.24.35-.63.64-.94.27-.3.5-.62.53-.72.06-.22-.15-.34-.62-.34-.35 0-.66-.11-.78-.28-.03-.06-.06-.3-.06-.54 0-.34-.04-.46-.14-.5-.08-.03-.54.06-1.04.21-.84.26-.97.27-2.04.25-1.82-.03-3.25.3-3.99.93-.32.28-.36.3-.45.16-.16-.21-.41-.17-1.13.19-.98.5-1.9 1.24-3.01 2.46a15.3 15.3 0 0 0-2.12 2.72 15.37 15.37 0 0 0-2.1 5.05 7.96 7.96 0 0 1-2.1 4.03c-.42.44-.77.72-1.18.94-.33.17-.6.33-.6.35l.43.9c.77 1.53.91 1.67 1.71 1.68.24 0 .67.05.95.12.28.06.54.1.59.1.04-.01.18-.22.31-.46zm2.08-3.06c.1-.12.81-.5 1.6-.86l.48-.22c.03-.02.06 0 .06.04 0 .08-.84.52-2.16 1.12-.04.02-.04-.02.02-.08zm-.9-2.16a8.39 8.39 0 0 0 .85-2.48c.28-1.3.95-2.98 1.19-2.98.12 0 .08.17-.14.55-.2.33-.37.89-.92 2.95-.23.85-.75 2-.9 2-.05 0-.09-.01-.09-.04zm7.66-1.56c.08-.1.17-.17.2-.17.02 0-.03.08-.12.17a.67.67 0 0 1-.2.17c-.02 0 .03-.08.12-.17zm3-2.64c0-.07.06-.2.13-.29.13-.16.13-.15.08.05-.07.26-.2.42-.2.24zm0-.84c0-.07.06-.2.13-.3.1-.12.12-.13.12-.03 0 .07-.05.2-.12.29-.1.12-.13.13-.13.04zm-8.13-1c0-.21 1.57-1.78 1.68-1.67.03.03-.24.35-.6.7-.37.36-.73.74-.8.85-.12.2-.28.26-.28.13zm2.46-2.18a7.5 7.5 0 0 1 1.82-1.38c.12 0 .02.25-.12.3-.23.06-1.17.68-1.47.95-.12.12-.23.18-.23.13zm5.19-2.82c-.49-.3-.66-.87-.4-1.36.2-.4.71-.67.71-.38 0 .07-.03.13-.08.13s-.16.07-.26.17c-.17.17-.23.7-.1.9.14.2.5.37.8.37.36 0 .45.2.13.28a.88.88 0 0 1-.8-.11zm.42-.81c-.19-.13-.24-.4-.14-.67.06-.15.55-.18.8-.05.3.16.35.38.16.63-.2.25-.54.29-.82.09zm.63-.31c.06-.1-.13-.24-.34-.24-.18 0-.3.25-.15.34.13.08.41.02.49-.1zM6.82 23.55a6.24 6.24 0 0 1 1.9-1.02c.3-.08.37-.14.34-.28a.42.42 0 0 0-.16-.26c-.22-.14-1.46.3-2.2.8-.36.23-.83.49-1.06.57-.22.09-.42.2-.43.24-.06.16.34.36.7.36.3 0 .46-.07.9-.41zm9.28-.6c.14-.3.26-.62.26-.69 0-.07.14-.42.3-.8.16-.37.3-.7.3-.73 0-.04-.12-.02-.26.02-.2.08-.27.18-.42.63-.1.3-.22.57-.26.6-.1.05-.5.95-.5 1.1 0 .17.15.46.24.46.04 0 .19-.26.34-.58zm-10.42.25c.23-.09.71-.36 1.08-.61a5.4 5.4 0 0 1 1.33-.66c.6-.19.78-.34.57-.46-.07-.05-.69.07-1.78.35-1.05.26-2.37.96-2.37 1.26 0 .14.27.27.57.28.1 0 .37-.07.6-.16zm9.93-.85c.23-.31.5-.94.5-1.14 0-.07-.05-.13-.12-.13-.35 0-1 1.4-.76 1.64.07.06.07.06.38-.37zm-.6-.14c.09-.21.15-.41.12-.44-.07-.07-.55.44-.55.6 0 .11.04.16.23.23.01 0 .1-.17.2-.39zm-1.92-8.29a.87.87 0 0 0 .05-.26.9.9 0 0 1 .18-.36c.1-.13.19-.35.2-.48 0-.14.05-.29.11-.33.06-.05.12-.19.14-.3.01-.13.1-.32.2-.42.24-.26.24-.48.01-.54-.35-.09-.8.27-.59.48.06.06 0 .14-.16.24-.3.18-.33.32-.09.39.26.06.2.2-.07.2a.6.6 0 0 0-.4.16c-.13.15-.14.2-.05.35.06.1.1.18.09.19l-.35.16c-.31.14-.48.35-.37.46.05.05.59.16.91.18a.2.2 0 0 0 .2-.12zm1.37-2.94c.07-.11.1-.27.07-.34-.03-.1 0-.14.12-.14.17 0 .27-.15.27-.41 0-.08.09-.18.2-.23a.4.4 0 0 0 .2-.26c.02-.1.1-.2.2-.23.19-.05.22-.38.06-.58-.16-.2-.63-.5-.78-.5-.22 0-.18.55.06.71.15.11.16.14.05.14-.08 0-.17-.04-.2-.08-.04-.07-.1-.06-.17 0-.13.11-.04.44.2.7.14.17.13.17-.14.03-.22-.12-.3-.13-.4-.05-.15.12-.16.43-.02.57.08.08.06.1-.08.1-.3 0-.4.52-.13.67.23.14.34.11.49-.1zm1.6-2.3a.4.4 0 0 0-.04-.3c-.11-.21-.1-.3.02-.18.06.05.17.1.25.1.3 0 .17-.36-.3-.83-.4-.4-.5-.45-.6-.36-.19.16-.16.28.12.55.31.3.28.36-.08.17-.33-.17-.5-.11-.5.17 0 .14.07.25.23.33.12.07.3.2.39.3.19.2.43.23.5.04zm21.13-.58c0-.05.08-.17.18-.28l.18-.2-.21-.05a.64.64 0 0 0-.4.05c-.15.08-.17.14-.13.37.03.14.08.3.1.33.05.09.28-.1.28-.22zm3.39-.01c0-.07-.08-.13-.17-.13-.17 0-.22.09-.12.2.1.1.29.05.29-.07zm-23.8-.36c0-.24-.29-.66-.63-.92-.26-.2-.32-.22-.39-.12-.12.2-.1.24.36.72.45.48.67.58.66.32zm.38-.28c.06-.08.02-.14-.49-1.02-.3-.52-.5-.6-.55-.2-.01.2.07.37.39.77.4.51.55.62.65.45zm.37-.44a7.4 7.4 0 0 0-.58-1.62c-.08-.1-.33.18-.33.38 0 .16.44 1.1.61 1.32.11.14.27.1.3-.08zm.52-.36c.19-.2.19-.2.06-.74-.08-.3-.14-.64-.14-.77 0-.12-.04-.25-.1-.28-.12-.08-.58.42-.58.64 0 .21.43 1.36.5 1.36.04 0 .15-.1.26-.2zm.63-.65a4.8 4.8 0 0 0-.33-1.43c-.11-.03-.3.33-.3.6 0 .47.34 1.14.55 1.07.05-.02.08-.13.08-.24zm-9.85-.54c0-.03-.1-.08-.22-.13-.14-.05-.2-.14-.2-.28 0-.11-.06-.25-.13-.3-.1-.09-.16-.04-.34.24-.26.4-.26.46-.05.4.09-.02.29 0 .44.03.36.08.5.1.5.04zm3.98-.71c0-.05-.04-.1-.09-.14-.05-.02-.08.01-.08.08 0 .08.03.14.08.14s.09-.04.09-.08zm3.61-.06c-.02-.03-.1-.03-.16 0-.07.02-.05.04.05.04s.14-.01.11-.04zm3.41-.33c0-.08-.04-.11-.08-.08-.05.02-.09.08-.09.13 0 .04.04.08.09.08.04 0 .08-.06.08-.13zm-1.75-.7c.12-.1.34-.15.83-.18.5-.02.7-.06.8-.18.13-.14.13-.17 0-.37-.14-.2-.14-.24-.01-.51a.88.88 0 0 0 .09-.5c-.04-.15 0-.26.2-.45.15-.13.27-.29.27-.34 0-.16-.5-.2-1.66-.16l-1.09.05-.32.42c-.38.5-.39.57-.12.64.2.05.2.09.18.51-.02.43 0 .48.22.65.15.1.25.26.25.37 0 .24.13.26.36.05zm-.36-.82c-.07-.08-.06-.14.03-.21.14-.12.3-.05.3.12 0 .16-.22.22-.33.1zm.78-.35c-.2-.16-.34-.2-.49-.17-.22.06-.36-.08-.22-.23a.4.4 0 0 0 .1-.24c0-.09.04-.16.09-.16.05 0 .07.09.06.2-.02.13.02.19.14.2.45.08.55.12.55.27 0 .08.05.2.1.25.2.19-.05.1-.33-.12zm.6-.35c-.13-.04-.16-.95-.04-.95.04 0 .14.07.23.17.13.14.14.19.04.25s-.1.1 0 .2c.09.12.09.16-.01.26-.07.06-.17.1-.23.07zm12.2 1.3c-.03-.06-.14-.16-.25-.2-.25-.12-.25-.17-.08-.5.11-.22.1-.25-.02-.35-.17-.13-.34-.13-.4-.02-.04.05-.15.06-.27.03-.2-.05-.29.08-.12.18.14.09.1.18-.13.26-.2.08-.2.09-.07.28.11.16.2.2.43.15.22-.03.3 0 .37.12.1.2.61.24.54.05zm-3.2-.26c.17-.07.43-.13.6-.13.31 0 .33-.05.13-.32-.12-.16-.2-.18-.42-.14-.16.03-.25.1-.23.15.02.06-.1.17-.26.25-.17.08-.28.18-.25.23.06.1.07.1.43-.05zm1.25-.14a.1.1 0 0 0-.13-.03.1.1 0 0 0-.03.13.1.1 0 0 0 .13.03.1.1 0 0 0 .03-.13zm3.67 0c-.05-.16-.23-.2-.23-.04 0 .07.06.13.13.13s.12-.04.1-.1zm-15.98-.1c0-.03-.06-.09-.13-.15-.1-.08-.13-.08-.13.04 0 .07.06.13.13.13s.13-.01.13-.03zm15.31-.34c.11-.14.05-.23-.17-.23-.1 0-.16.06-.16.17 0 .2.2.22.33.06zm1.55-.25c-.07-.08-.12-.07-.2 0-.09.1-.08.13.02.19.17.1.32-.05.18-.19zM3.83 2.3a.08.08 0 0 0-.08-.09.08.08 0 0 0-.09.09c0 .04.04.08.09.08.04 0 .08-.04.08-.08zm1.52-.21c.1-.13.06-.3-.08-.3-.04 0-.1.08-.13.17-.05.16-.07.17-.25.05-.23-.15-.36-.08-.15.08.2.15.49.15.61 0zm7.27.02c.21-.21.12-.35-.21-.3-.18.04-.36.02-.42-.04-.09-.06-.15-.06-.24.02-.19.15-.16.22.15.32.38.12.6.12.72 0zm-1.48-.2c-.02-.06-.06-.12-.08-.12-.02 0-.03.06-.03.13 0 .06.03.12.08.12.04 0 .06-.06.03-.12zm5.39-.12c.15-.27.1-.41-.19-.56-.27-.14-.27-.14-.14.02.1.1.13.25.1.43-.05.31.09.38.23.11zm-3.51-.26c.03-.04 0-.08-.04-.08-.05 0-.09.04-.09.08 0 .05.02.09.04.09s.06-.04.09-.09zm-2.43-.28c.02-.1-.03-.14-.15-.14-.1 0-.17.05-.17.11 0 .26.27.29.32.03zm1.28.11c0-.04-.04-.08-.09-.08-.04 0-.06.04-.03.08.03.05.07.09.09.09.02 0 .03-.04.03-.09zM7.25 1.3c.2-.08.16-.2-.07-.2-.21 0-.28.08-.16.2.07.07.07.07.23 0zm-2.43-.08c-.02-.03-.1-.03-.16 0-.07.02-.05.04.05.04s.14-.01.11-.04z"/>
  <path fill="#b70204" d="M20.55 50.75a25.5 25.5 0 0 1-4.57-1c-.63-.21-2.14-.82-2.92-1.18-2.22-1-5.49-3.7-7.35-6.1a28.64 28.64 0 0 1-4.04-7.76 15.53 15.53 0 0 1-.64-3.8c-.1-1.91-.25-5.3-.3-6.74-.07-2.94-.21-6.73-.29-8.13-.04-.83-.12-2.97-.17-4.74C.22 9.53.15 7.36.1 6.48.06 5.59.02 3.78.02 2.43V0H45.15v3.62c0 3.4-.05 5.14-.25 10.86-.05 1.28-.1 3.53-.13 5-.03 1.46-.09 3.35-.13 4.18-.05.84-.1 2.16-.12 2.93-.15 5.4-.14 5.23-.59 7.1a29.8 29.8 0 0 1-1.67 4.83 27 27 0 0 1-2.32 3.69 21.64 21.64 0 0 1-13.8 8.3c-1.1.2-1.54.23-3.26.25-1.1.01-2.14 0-2.33-.01zm4.53-.93c2.45-.33 4.72-1 6.73-1.99 3.08-1.5 5.5-3.56 7.98-6.73a25 25 0 0 0 2.69-5.22c.26-.7.74-2.63.92-3.66.13-.76.22-2.38.23-4.11a804.92 804.92 0 0 0 .33-11.1l.17-5.96c.14-3.98.27-10.14.21-10.19-.02-.03-5.3-.05-11.7-.06C26.22.8 16.5.78 11.04.76 5.58.76 1.1.76 1.06.8c-.07.07-.04 1.76.1 5.42.07 1.68.14 4.25.17 5.72.03 1.46.09 3.39.14 4.27.04.89.16 3.9.25 6.7.32 9.27.34 9.56 1.05 12.02a24.22 24.22 0 0 0 3.78 7.17 23.7 23.7 0 0 0 4.22 4.1c.21.14.58.38.8.55 1.07.74 2.66 1.5 4.07 1.96 2.2.7 3.27.93 5.5 1.19.76.08 3.06.04 3.94-.08zm3.7-5.86a33.51 33.51 0 0 0-3.02-2.4 29.1 29.1 0 0 1-1.4-1 45.85 45.85 0 0 0-1.7-1.22c-.27-.18-.65-.46-.84-.6-.18-.16-.69-.52-1.12-.8a4.4 4.4 0 0 1-.84-.65c-.03-.07.26-.44.77-.98 1.17-1.24 1.49-2.02 1.06-2.61-.21-.3-.67-.6-.94-.6-.3 0-1.1.55-2 1.34-.4.36-1.08.94-1.5 1.3a88.46 88.46 0 0 0-3.43 3c-.3.29-.72.64-.93.78a3.6 3.6 0 0 0-.55.45c-.16.18-1.63 1.44-2.15 1.83-.14.1-.3.2-.37.2-.17 0-.9-.82-1.2-1.32a15.3 15.3 0 0 0-.44-.7c-.12-.17-.2-.37-.18-.45.03-.2 5.45-5.84 11.2-11.67 3.21-3.26 4.25-4.33 6.85-7.08l2.8-2.92c1.34-1.37 3.83-4 5.54-5.84a39.4 39.4 0 0 0 2.2-2.64c.58-.78 1.1-1.42 1.16-1.42.13 0 .46.43.71.93l.38.76c.27.55.77 1.96.97 2.8a17.93 17.93 0 0 1 .85 6.73 42.47 42.47 0 0 1-.55 4.23c-.6 2.8-1.5 6.14-2.12 7.72-.64 1.64-2 4.2-3.23 6.04a64.02 64.02 0 0 1-3.65 5.16c-.8 1-1.7 1.95-1.85 1.95-.07 0-.28-.14-.48-.32zm1.23-1.1l1-1.2c.21-.26.6-.77.84-1.13.25-.36.6-.81.76-1.01.37-.42.94-1.25 1.15-1.67.08-.17.38-.66.68-1.1.42-.65 1.26-2.06 1.84-3.1.94-1.68 1.86-4 2.3-5.75.38-1.55.57-2.4.73-3.3l.34-1.89c.22-1.19.59-4.07.59-4.61 0-.25-.06-.87-.14-1.38l-.2-1.48a27.42 27.42 0 0 0-1.61-5.6c-.26-.51-.5-.84-.62-.83-.05 0-.22.18-.37.4-1.09 1.6-3.34 4.1-7.35 8.15a324.35 324.35 0 0 0-6.72 6.94 136.89 136.89 0 0 1-4.95 5.07 310.4 310.4 0 0 1-3.22 3.22c-.42.4-1.07 1.09-1.45 1.53a71.2 71.2 0 0 1-3.46 3.64c-.85.86-1.57 1.61-1.6 1.67-.14.22 1.07 1.97 1.35 1.97.16 0 .8-.47 1.7-1.25.36-.32.85-.72 1.08-.9.23-.2.73-.64 1.1-1.01.37-.37.96-.9 1.31-1.18l1.5-1.28c3.3-2.96 3.49-3.1 4.08-3.1.64 0 1.48.65 1.7 1.31.2.62-.27 1.58-1.26 2.54-.28.28-.52.57-.52.65 0 .14.2.29 1.15.88.28.17.68.46.9.64.2.18.76.58 1.22.88.46.31 1.16.84 1.56 1.17.39.34.87.72 1.07.86.51.37 1.9 1.43 2.31 1.78.2.16.4.27.47.24.07-.02.4-.37.74-.78zm-1.57-7.7c-.32-.5-.54-.97-.65-1.38a2.13 2.13 0 0 0-.17-.45c-.03-.03-.24-.01-.46.04-.37.1-.42.1-.84-.12-.59-.3-.95-.9-.74-1.22.05-.08.14-.07.4.06.46.24 1.05.08.92-.25-.16-.36-.2-.83-.1-1.2.08-.35.07-.42-.12-.76-.26-.48-.79-.85-1.29-.9-.56-.06-.74 0-1.37.54-.68.59-.7.58-.93-.6-.16-.9-.13-1.57.1-2.02.23-.44.9-1.06 1.29-1.16.62-.16 1.11-.04 1.83.48.35.25.67.44.71.41.04-.02.06-.28.03-.57-.05-.74.1-1.45.45-2.13.36-.7 1.27-1.92 1.44-1.92.06 0 .25.2.42.45l.64.95c.51.76.7 1.5.65 2.47-.03.43-.02.8.02.83.03.02.13-.04.22-.14s.33-.29.54-.43c.33-.23.44-.26 1.01-.27.8 0 1.15.16 1.8.87.58.62.71 1.06.62 1.98-.06.63-.45 1.68-.63 1.68-.05 0-.18-.19-.3-.4a2.88 2.88 0 0 0-.46-.66c-.22-.21-.35-.25-.8-.28-.72-.05-1.05.1-1.53.71l-.38.5.05.56c.04.39.02.66-.06.84-.09.22-.09.28.02.38.13.14.58.18.98.08.27-.06.27-.05.27.2a1.4 1.4 0 0 1-.85 1.27 1.1 1.1 0 0 1-.59 0c-.76-.17-.76-.17-.96.4-.18.5-.77 1.48-.9 1.48-.05 0-.17-.15-.28-.32zm-16.6-5.47a31.61 31.61 0 0 1-1.87-1.73 2.63 2.63 0 0 1-.7-.93c-.1-.37-.27-.86-.36-1.04-.06-.13-.53-.24-1.24-.27-.34-.02-.54-.1-.89-.33a8.54 8.54 0 0 0-.66-.42 3.05 3.05 0 0 1-.5-.34c-.15-.14-.33-.25-.4-.25s-.35-.2-.61-.45a2.5 2.5 0 0 0-.72-.51c-.58-.14-.27-.55 1.01-1.32a8.76 8.76 0 0 1 3.38-1.06c.76-.1 1.34-.42 2.13-1.17a6.69 6.69 0 0 0 2-3.57c.16-.7.3-1.35.3-1.45.01-.25-.15-.37-.48-.37-.33 0-.74-.2-.81-.39-.1-.26-.05-.45.22-.78.15-.2.37-.5.49-.7a33 33 0 0 1 .66-1.05c.48-.73.64-1.05.82-1.65.17-.57.36-1.1.54-1.49l.36-.8c.11-.25.31-.6.45-.78.5-.62.62-.79.75-1.04.16-.33.62-.68 1.42-1.13.35-.19.79-.46.97-.6.3-.25.45-.3.72-.26.2.03.25.18.25.8 0 .4.04.66.13.79l.13.18.58-.3c.33-.16.84-.34 1.2-.4.35-.06.83-.22 1.08-.34a7.75 7.75 0 0 1 3.43-.62c1.04.05 1.12.04 1.87-.2.84-.27 1.52-.32 1.77-.13.08.07.24.34.35.62.2.49.2.49.66.58.58.12.64.15.7.5.08.41-.22 1.02-.75 1.53-.38.36-.5.55-.69 1.1a5.35 5.35 0 0 1-1.07 2.04c-.23.25-.41.53-.41.63 0 .1-.2.37-.42.61-.23.24-.48.6-.55.78-.08.19-.3.52-.48.74-.31.37-.36.49-.55 1.44-.11.57-.2 1.18-.2 1.36 0 .18-.05.4-.1.5-.12.22-.47.16-1-.19-.59-.4-.68-.36-1.3.49-.58.8-1.17 1.44-1.7 1.86-.28.22-.32.3-.36.71-.04.5-.32 1.5-.51 1.87-.07.13-.18.24-.25.24-.15 0-1.07-.54-1.35-.78-.22-.19-.85-.2-1.25-.04-.38.17-.74.8-1.21 2.2-.4 1.18-.81 1.94-1.08 1.99-.23.04-.4-.15-.65-.72-.39-.86-.92-1.05-1.3-.47-.32.48-.46 1.17-.64 3.02-.17 1.7-.34 2.48-.74 3.3-.2.41-.26.43-.56.19zm.5-1.34c.22-.67.28-1.07.37-2.27.07-.93.08-1.5.03-1.54-.05-.05-.36-.1-.7-.12a6.66 6.66 0 0 1-.84-.1 1.18 1.18 0 0 0-.36-.03c-.07.01-.16-.02-.2-.07-.02-.05-.14-.09-.25-.09-.12 0-.2-.05-.2-.12 0-.07-.1-.2-.22-.29-.12-.09-.21-.23-.21-.3 0-.07-.08-.18-.17-.24a.4.4 0 0 1-.17-.3c0-.1-.07-.22-.16-.27-.1-.06-.15-.14-.12-.25.03-.1-.03-.24-.16-.37-.1-.1-.2-.27-.2-.36 0-.26-.31-.25-1.52.04-2.05.5-3.5 1.47-2.5 1.67.15.03.3.11.32.19.1.27.3.43.63.49.24.03.32.09.32.2 0 .19.4.42.72.42.16 0 .21.04.21.16 0 .24.26.35.83.35.27 0 .54.04.6.1.13.14.74.1.98-.05.24-.15.26-.1.13.25-.12.31-.01.8.18.86.13.03.16.12.16.44 0 .44.18.77.43.77.1 0 .16.05.16.12 0 .2.43.64.64.64.13 0 .22.06.26.19.07.24.55.75.67.71.04-.01.2-.39.34-.83zm.75-4.64a8.74 8.74 0 0 1 1.66-2.14 7.3 7.3 0 0 1 1.9-1.2c1.24-.63 1.32-.69 1.45-1.01.07-.19.36-.59.64-.88.53-.57.84-1.1 1-1.72.2-.7.47-.79.33-.1-.15.7-.47 1.28-.99 1.82-.9.96-.94 1.46-.07 1l.31-.18v.2c0 .28.24.5.46.45.14-.04.22.02.33.21.1.16.2.25.3.23.2-.04.52-.86.52-1.35 0-.64.18-2.22.27-2.38.16-.3.25-.06.2.54-.06.5-.05.58.07.58.2 0 .87-.63 1.2-1.14l.59-.85c.35-.5.37-.63.1-.63-.35 0-.65-.18-.65-.39 0-.26.42-.8.9-1.16a4.56 4.56 0 0 0 1.37-1.53c.2-.44.41-.55.32-.16-.12.46-.59 1.1-1.38 1.85-.87.83-.93 1-.33.94.29-.02.38 0 .5.17.1.12.25.2.4.2.18 0 .25.04.29.2.05.23.33.42.5.36.07-.03.14-.29.17-.67.03-.34.13-.89.22-1.21.09-.33.18-.81.22-1.08.06-.52.17-.68.34-.46.14.2.18.18.43-.2.25-.37.22-.64-.06-.56-.31.08-1.2-.1-1.9-.39-.9-.37-1.52-.94-1.6-1.5-.06-.32-.44-1.76-.62-2.32-.03-.11-.01-.15.07-.12.21.06.65 1.09.72 1.68.07.68.15.9.44 1.21.54.57 2.44 1.18 3.12 1 .38-.1.82-.4.77-.54-.01-.05-.35-.09-.74-.1-1-.01-1.27-.16-1.85-1a3.22 3.22 0 0 0-.7-.79c-.26-.14-.31-.27-.12-.34.2-.09.44.11.84.7.2.32.47.66.58.77.4.36 1.14.45 1.9.23.8-.24 1.09-.61 1.63-2.1.28-.77.4-.98.8-1.42.71-.77.74-1.1.1-1.1-.77 0-1.06-.24-1.06-.88 0-.34-.04-.47-.14-.5-.07-.03-.52.06-1 .2-.79.25-.93.27-2 .26-1.86-.02-3.3.3-4.05.9-.32.27-.38.29-.45.16-.1-.2-.24-.17-.98.13-.9.38-1.98 1.23-3.17 2.5a14.8 14.8 0 0 0-2.29 3 14.84 14.84 0 0 0-2.01 4.94c-.54 2.21-1.82 4.12-3.24 4.84-.31.16-.57.34-.57.4 0 .24.84 1.88 1.14 2.23.29.34.31.35.97.4.38.04.88.11 1.13.17.24.06.47.1.5.07.04-.01.16-.21.27-.44zm1.92-6.97c-.01-.4.55-2.42.65-2.32.02.02-.08.47-.22 1-.34 1.26-.42 1.5-.43 1.32zm9.42-9.45a1.17 1.17 0 0 1-.36-.34c-.13-.25-.1-.82.04-.94.12-.1.13-.08.08.11-.03.13-.03.36 0 .53.04.23.12.33.38.46.19.1.44.17.56.17.12 0 .2.04.16.09-.08.14-.57.1-.86-.08zm.45-.8c-.26-.25-.27-.32-.07-.56.12-.15.18-.17.36-.1.2.08.2.09.03.1-.43 0-.48.5-.05.5.32 0 .46-.14.35-.35-.08-.15-.07-.16.08-.07.24.12.23.3-.04.5-.29.23-.38.22-.66-.03zm-.43-.82c.03-.04.09-.08.13-.08.05 0 .07.04.04.08-.03.05-.1.09-.14.09-.05 0-.06-.04-.03-.09zm-8.4 17.55c.11-.22.25-.55.3-.74.06-.19.24-.67.41-1.08.17-.41.28-.76.26-.79-.07-.07-.64.2-.69.34-.02.07-.1.1-.2.08-.19-.05-.7.34-.7.53 0 .06-.08.11-.2.11-.25 0-.77.54-.7.72.08.21.32.26.44.1.1-.14.11-.14.14.05.01.12.09.2.21.22.16.02.2.08.2.31 0 .67.24.73.53.15zm-2.81-9.5l.25-.68c.19-.51.44-1.05.6-1.28a.88.88 0 0 0 .15-.33c0-.06.1-.22.22-.35.11-.14.2-.31.2-.38 0-.06.05-.12.1-.12s.14-.12.21-.27c.14-.3.44-.73.66-.95.08-.08.14-.2.14-.26 0-.07.07-.16.16-.2a.52.52 0 0 0 .21-.3c.03-.12.11-.22.18-.22.07 0 .15-.1.18-.21.03-.12.1-.21.18-.21.06 0 .14-.08.17-.17.02-.1.08-.17.12-.17.05 0 .24-.15.42-.34.18-.18.36-.34.4-.34.1 0 .52-.46.52-.58 0-.06.05-.1.12-.07.06.03.18 0 .26-.06.13-.1.13-.13 0-.56-.07-.25-.13-.59-.13-.75a.98.98 0 0 0-.09-.43c-.07-.11-.11-.1-.27.1-.12.15-.25.22-.33.2-.08-.04-.23.06-.41.26-.18.2-.34.32-.44.3-.2-.04-.49.21-.49.43 0 .12-.04.15-.16.1-.2-.05-.35.17-.35.5 0 .14-.04.2-.14.2-.09-.01-.16.06-.2.2-.02.11-.12.22-.21.24-.22.04-.3.18-.26.4.03.11-.01.19-.14.24-.1.05-.2.18-.22.3-.02.12-.08.24-.15.28-.07.04-.12.2-.12.4 0 .18-.03.33-.08.33s-.09.12-.09.27c0 .16-.06.31-.17.4a.6.6 0 0 0-.2.4.7.7 0 0 1-.16.4.65.65 0 0 0-.14.41c0 .18-.07.31-.21.43-.12.09-.22.24-.22.33 0 .1-.1.25-.2.34-.12.1-.22.23-.22.3 0 .07-.1.24-.21.38-.14.16-.2.32-.17.41.04.12-.02.2-.2.3-.27.13-.5.43-.4.53.09.08.82.25 1.02.24.11 0 .21-.13.3-.4z"/>
  <path fill="#161825" d="M20.55 50.75a25.5 25.5 0 0 1-4.57-1c-.63-.21-2.14-.82-2.92-1.18-2.22-1-5.49-3.7-7.35-6.1a28.64 28.64 0 0 1-4.04-7.76 15.53 15.53 0 0 1-.64-3.8c-.1-1.91-.25-5.3-.3-6.74-.07-2.94-.21-6.73-.29-8.13-.04-.83-.12-2.97-.17-4.74C.22 9.53.15 7.36.1 6.48.06 5.59.02 3.78.02 2.43V0H45.15v3.62c0 3.4-.05 5.14-.25 10.86-.05 1.28-.1 3.53-.13 5-.03 1.46-.09 3.35-.13 4.18-.05.84-.1 2.16-.12 2.93-.15 5.4-.14 5.23-.59 7.1a29.8 29.8 0 0 1-1.67 4.83 27 27 0 0 1-2.32 3.69 21.64 21.64 0 0 1-13.8 8.3c-1.1.2-1.54.23-3.26.25-1.1.01-2.14 0-2.33-.01zm4.53-.93c2.45-.33 4.72-1 6.73-1.99 3.08-1.5 5.5-3.56 7.98-6.73a25 25 0 0 0 2.69-5.22c.26-.7.74-2.63.92-3.66.13-.76.22-2.38.23-4.11a804.92 804.92 0 0 0 .33-11.1l.17-5.96c.14-3.98.27-10.14.21-10.19-.02-.03-5.3-.05-11.7-.06C26.22.8 16.5.78 11.04.76 5.58.76 1.1.76 1.06.8c-.07.07-.04 1.76.1 5.42.07 1.68.14 4.25.17 5.72.03 1.46.09 3.39.14 4.27.04.89.16 3.9.25 6.7.32 9.27.34 9.56 1.05 12.02a24.22 24.22 0 0 0 3.78 7.17 23.7 23.7 0 0 0 4.22 4.1c.21.14.58.38.8.55 1.07.74 2.66 1.5 4.07 1.96 2.2.7 3.27.93 5.5 1.19.76.08 3.06.04 3.94-.08zm3.7-5.86a33.51 33.51 0 0 0-3.02-2.4 29.1 29.1 0 0 1-1.4-1 45.85 45.85 0 0 0-1.7-1.22c-.27-.18-.65-.46-.84-.6-.18-.16-.69-.52-1.12-.8a4.4 4.4 0 0 1-.84-.65c-.03-.07.26-.44.77-.98 1.17-1.24 1.49-2.02 1.06-2.61-.21-.3-.67-.6-.94-.6-.3 0-1.1.55-2 1.34-.4.36-1.08.94-1.5 1.3a88.46 88.46 0 0 0-3.43 3c-.3.29-.72.64-.93.78a3.6 3.6 0 0 0-.55.45c-.16.18-1.63 1.44-2.15 1.83-.14.1-.3.2-.37.2-.17 0-.9-.82-1.2-1.32a15.3 15.3 0 0 0-.44-.7c-.12-.17-.2-.37-.18-.45.03-.2 5.45-5.84 11.2-11.67 3.21-3.26 4.25-4.33 6.85-7.08l2.8-2.92c1.34-1.37 3.83-4 5.54-5.84a39.4 39.4 0 0 0 2.2-2.64c.58-.78 1.1-1.42 1.16-1.42.13 0 .46.43.71.93l.38.76c.27.55.77 1.96.97 2.8a17.93 17.93 0 0 1 .85 6.73 42.47 42.47 0 0 1-.55 4.23c-.6 2.8-1.5 6.14-2.12 7.72-.64 1.64-2 4.2-3.23 6.04a64.02 64.02 0 0 1-3.65 5.16c-.8 1-1.7 1.95-1.85 1.95-.07 0-.28-.14-.48-.32zm1.23-1.1l1-1.2c.21-.26.6-.77.84-1.13.25-.36.6-.81.76-1.01.37-.42.94-1.25 1.15-1.67.08-.17.38-.66.68-1.1.42-.65 1.26-2.06 1.84-3.1.94-1.68 1.86-4 2.3-5.75.38-1.55.57-2.4.73-3.3l.34-1.89c.22-1.19.59-4.07.59-4.61 0-.25-.06-.87-.14-1.38l-.2-1.48a27.42 27.42 0 0 0-1.61-5.6c-.26-.51-.5-.84-.62-.83-.05 0-.22.18-.37.4-1.09 1.6-3.34 4.1-7.35 8.15a324.35 324.35 0 0 0-6.72 6.94 136.89 136.89 0 0 1-4.95 5.07 310.4 310.4 0 0 1-3.22 3.22c-.42.4-1.07 1.09-1.45 1.53a71.2 71.2 0 0 1-3.46 3.64c-.85.86-1.57 1.61-1.6 1.67-.14.22 1.07 1.97 1.35 1.97.16 0 .8-.47 1.7-1.25.36-.32.85-.72 1.08-.9.23-.2.73-.64 1.1-1.01.37-.37.96-.9 1.31-1.18l1.5-1.28c3.3-2.96 3.49-3.1 4.08-3.1.64 0 1.48.65 1.7 1.31.2.62-.27 1.58-1.26 2.54-.28.28-.52.57-.52.65 0 .14.2.29 1.15.88.28.17.68.46.9.64.2.18.76.58 1.22.88.46.31 1.16.84 1.56 1.17.39.34.87.72 1.07.86.51.37 1.9 1.43 2.31 1.78.2.16.4.27.47.24.07-.02.4-.37.74-.78zm-1.57-7.7c-.32-.5-.54-.97-.65-1.38a2.13 2.13 0 0 0-.17-.45c-.03-.03-.24-.01-.46.04-.37.1-.42.1-.84-.12-.59-.3-.95-.9-.74-1.22.05-.08.14-.07.4.06.46.24 1.05.08.92-.25-.16-.36-.2-.83-.1-1.2.08-.35.07-.42-.12-.76-.26-.48-.79-.85-1.29-.9-.56-.06-.74 0-1.37.54-.68.59-.7.58-.93-.6-.16-.9-.13-1.57.1-2.02.23-.44.9-1.06 1.29-1.16.62-.16 1.11-.04 1.83.48.35.25.67.44.71.41.04-.02.06-.28.03-.57-.05-.74.1-1.45.45-2.13.36-.7 1.27-1.92 1.44-1.92.06 0 .25.2.42.45l.64.95c.51.76.7 1.5.65 2.47-.03.43-.02.8.02.83.03.02.13-.04.22-.14s.33-.29.54-.43c.33-.23.44-.26 1.01-.27.8 0 1.15.16 1.8.87.58.62.71 1.06.62 1.98-.06.63-.45 1.68-.63 1.68-.05 0-.18-.19-.3-.4a2.88 2.88 0 0 0-.46-.66c-.22-.21-.35-.25-.8-.28-.72-.05-1.05.1-1.53.71l-.38.5.05.56c.04.39.02.66-.06.84-.09.22-.09.28.02.38.13.14.58.18.98.08.27-.06.27-.05.27.2a1.4 1.4 0 0 1-.85 1.27 1.1 1.1 0 0 1-.59 0c-.76-.17-.76-.17-.96.4-.18.5-.77 1.48-.9 1.48-.05 0-.17-.15-.28-.32zm.6-.78c.26-.39.37-.78.42-1.56.06-.8-.02-.9-.71-.9-.41 0-.46.02-.54.22-.26.68-.15 1.64.26 2.3.2.33.31.32.57-.06zm2.2-1.36c.35-.21.32-.36-.09-.43-.17-.03-.5-.17-.74-.32s-.47-.25-.5-.22c-.05.03-.09.2-.09.37 0 .66.8.99 1.43.6zm-3.92-.12c.34-.14.56-.43.56-.75 0-.34-.32-.31-.62.06-.12.16-.36.33-.52.39-.35.1-.38.22-.11.33.27.11.37.1.69-.03zm3-1.48c.06-.04.1-.16.08-.27-.02-.18-.08-.2-.58-.26-.83-.08-2.48-.08-2.6 0-.07.04-.1.17-.1.28.03.17.1.2.46.25.67.08 2.61.08 2.74 0zm.26-1.63a2.7 2.7 0 0 1 1.5-1.17c.56-.14 1.5.1 1.8.46.18.21.33.15.43-.19a2.1 2.1 0 0 0-.48-2.05c-.43-.51-1.23-.73-1.78-.49-.85.37-1.7 1.52-2.2 2.98-.3.87-.26 1.1.14 1.05.16-.02.31-.18.6-.59zm-2.53.26c0-.29-.47-1.53-.81-2.14-.54-.96-1.57-1.7-2.35-1.7-.75 0-1.15.5-1.25 1.55-.07.73-.02 1.2.13 1.25.06.02.29-.08.51-.22.35-.22.5-.26.95-.26.82 0 1.45.38 1.84 1.12.33.63.37.66.69.66.26 0 .29-.02.29-.26zm1.57-.92c.65-2 .78-3.66.38-4.78a4.9 4.9 0 0 0-.98-1.6c-.11-.05-.36.19-.73.7-.61.84-.88 1.82-.8 2.88.03.4.12.95.19 1.23.13.52.78 2.57.85 2.7.02.03.2.05.38.03l.34-.02zm-17.77.56a31.61 31.61 0 0 1-1.88-1.73 2.63 2.63 0 0 1-.7-.93c-.1-.37-.27-.86-.36-1.04-.06-.13-.53-.24-1.24-.27-.34-.02-.54-.1-.89-.33a8.54 8.54 0 0 0-.66-.42 3.05 3.05 0 0 1-.5-.34c-.15-.14-.33-.25-.4-.25s-.35-.2-.61-.45a2.5 2.5 0 0 0-.72-.51c-.58-.14-.27-.55 1.01-1.32a8.76 8.76 0 0 1 3.38-1.06c.76-.1 1.34-.42 2.13-1.17a6.69 6.69 0 0 0 2-3.57c.16-.7.3-1.35.3-1.45.01-.25-.15-.37-.48-.37-.33 0-.74-.2-.81-.39-.1-.26-.05-.45.22-.78.15-.2.37-.5.49-.7a33 33 0 0 1 .66-1.05c.48-.73.64-1.05.82-1.65.17-.57.36-1.1.54-1.49l.36-.8c.11-.25.31-.6.45-.78.5-.62.62-.79.75-1.04.16-.33.62-.68 1.42-1.13.35-.19.79-.46.97-.6.3-.25.45-.3.72-.26.2.03.25.18.25.8 0 .4.04.66.13.79l.13.18.58-.3c.33-.16.84-.34 1.2-.4.35-.06.83-.22 1.08-.34a7.75 7.75 0 0 1 3.43-.62c1.04.05 1.12.04 1.87-.2.84-.27 1.52-.32 1.77-.13.08.07.24.34.35.62.2.49.2.49.66.58.58.12.64.15.7.5.08.41-.22 1.02-.75 1.53-.38.36-.5.55-.69 1.1a5.35 5.35 0 0 1-1.07 2.04c-.23.25-.41.53-.41.63 0 .1-.2.37-.42.61-.23.24-.48.6-.55.78-.08.19-.3.52-.48.74-.31.37-.36.49-.55 1.44-.11.57-.2 1.18-.2 1.36 0 .18-.05.4-.1.5-.12.22-.47.16-1-.19-.59-.4-.68-.36-1.3.49-.58.8-1.17 1.44-1.7 1.86-.28.22-.32.3-.36.71-.04.5-.32 1.5-.51 1.87-.07.13-.18.24-.25.24-.15 0-1.07-.54-1.35-.78-.22-.19-.85-.2-1.25-.04-.38.17-.74.8-1.21 2.2-.4 1.18-.81 1.94-1.08 1.99-.23.04-.4-.15-.65-.72-.39-.86-.92-1.05-1.3-.47-.32.48-.46 1.17-.64 3.02-.17 1.7-.34 2.48-.74 3.3-.2.41-.26.43-.56.19zm.5-1.34c.2-.67.27-1.07.36-2.27.07-.93.08-1.5.03-1.54-.05-.05-.36-.1-.7-.12a6.66 6.66 0 0 1-.84-.1 1.18 1.18 0 0 0-.36-.03c-.07.01-.16-.02-.2-.07-.02-.05-.14-.09-.25-.09-.12 0-.2-.05-.2-.12 0-.07-.1-.2-.22-.29-.12-.09-.21-.23-.21-.3 0-.07-.08-.18-.17-.24a.4.4 0 0 1-.17-.3c0-.1-.07-.22-.16-.27-.1-.06-.15-.14-.12-.25.03-.1-.03-.24-.16-.37-.1-.1-.2-.27-.2-.36 0-.26-.31-.25-1.52.04-2.05.5-3.5 1.47-2.5 1.67.15.03.3.11.32.19.1.27.3.43.63.49.24.03.32.09.32.2 0 .19.4.42.72.42.16 0 .21.04.21.16 0 .24.26.35.83.35.27 0 .54.04.6.1.13.14.74.1.98-.05.24-.15.26-.1.13.25-.12.31-.01.8.18.86.13.03.16.12.16.44 0 .44.18.77.43.77.1 0 .16.05.16.12 0 .2.43.64.64.64.13 0 .22.06.26.19.07.24.55.75.67.71.04-.01.2-.39.34-.83zm.74-4.64a8.74 8.74 0 0 1 1.66-2.14 7.3 7.3 0 0 1 1.9-1.2c1.24-.63 1.32-.69 1.45-1.01.07-.19.36-.59.64-.88.53-.57.84-1.1 1-1.72.2-.7.47-.79.33-.1-.15.7-.47 1.28-.99 1.82-.9.96-.94 1.46-.07 1l.31-.18v.2c0 .28.24.5.46.45.14-.04.22.02.33.21.1.16.2.25.3.23.2-.04.52-.86.52-1.35 0-.64.18-2.22.27-2.38.16-.3.25-.06.2.54-.06.5-.05.58.07.58.2 0 .87-.63 1.2-1.14l.59-.85c.35-.5.37-.63.1-.63-.35 0-.65-.18-.65-.39 0-.26.42-.8.9-1.16a4.56 4.56 0 0 0 1.37-1.53c.2-.44.41-.55.32-.16-.12.46-.59 1.1-1.38 1.85-.87.83-.93 1-.33.94.29-.02.38 0 .5.17.1.12.25.2.4.2.18 0 .25.04.29.2.05.23.33.42.5.36.07-.03.14-.29.17-.67.03-.34.13-.89.22-1.21.09-.33.18-.81.22-1.08.06-.52.17-.68.34-.46.14.2.18.18.43-.2.25-.37.22-.64-.06-.56-.31.08-1.2-.1-1.9-.39-.9-.37-1.52-.94-1.6-1.5-.06-.32-.44-1.76-.62-2.32-.03-.11-.01-.15.07-.12.21.06.65 1.09.72 1.68.07.68.15.9.44 1.21.54.57 2.44 1.18 3.12 1 .38-.1.82-.4.77-.54-.01-.05-.35-.09-.74-.1-1-.01-1.27-.16-1.85-1a3.22 3.22 0 0 0-.7-.79c-.26-.14-.31-.27-.12-.34.2-.09.44.11.84.7.2.32.47.66.58.77.4.36 1.14.45 1.9.23.8-.24 1.09-.61 1.63-2.1.28-.77.4-.98.8-1.42.71-.77.74-1.1.1-1.1-.77 0-1.06-.24-1.06-.88 0-.34-.04-.47-.14-.5-.07-.03-.52.06-1 .2-.79.25-.93.27-2 .26-1.86-.02-3.3.3-4.05.9-.32.27-.38.29-.45.16-.1-.2-.24-.17-.98.13-.9.38-1.98 1.23-3.17 2.5a14.8 14.8 0 0 0-2.29 3 14.84 14.84 0 0 0-2.01 4.94c-.54 2.21-1.82 4.12-3.24 4.84-.31.16-.57.34-.57.4 0 .24.84 1.88 1.14 2.23.29.34.31.35.97.4.38.04.88.11 1.13.17.24.06.47.1.5.07.04-.01.16-.21.27-.44zm1.92-6.97c-.01-.4.55-2.42.65-2.32.02.02-.08.47-.22 1-.34 1.26-.42 1.5-.43 1.32zm9.42-9.45a1.17 1.17 0 0 1-.36-.34c-.13-.25-.1-.82.04-.94.12-.1.13-.08.08.11-.03.13-.03.36 0 .53.04.23.12.33.38.46.19.1.44.17.56.17.12 0 .2.04.16.09-.08.14-.57.1-.86-.08zm.45-.8c-.26-.25-.27-.32-.07-.56.12-.15.18-.17.36-.1.2.08.2.09.03.1-.43 0-.48.5-.05.5.32 0 .46-.14.35-.35-.08-.15-.07-.16.08-.07.24.12.23.3-.04.5-.29.23-.38.22-.66-.03zm-.43-.82c.03-.04.09-.08.13-.08.05 0 .07.04.04.08-.03.05-.1.09-.14.09-.05 0-.06-.04-.03-.09zm-8.4 17.55c.11-.22.25-.55.3-.74.06-.19.24-.67.41-1.08.17-.41.28-.76.26-.79-.07-.07-.64.2-.69.34-.02.07-.1.1-.2.08-.19-.05-.7.34-.7.53 0 .06-.08.11-.2.11-.25 0-.77.54-.7.72.08.21.32.26.44.1.1-.14.11-.14.14.05.01.12.09.2.21.22.16.02.2.08.2.31 0 .67.24.73.53.15zm-2.81-9.5l.25-.68c.19-.51.44-1.05.6-1.28a.88.88 0 0 0 .15-.33c0-.06.1-.22.22-.35.11-.14.2-.31.2-.38 0-.06.05-.12.1-.12s.14-.12.21-.27c.14-.3.44-.73.66-.95.08-.08.14-.2.14-.26 0-.07.07-.16.16-.2a.52.52 0 0 0 .21-.3c.03-.12.11-.22.18-.22.07 0 .15-.1.18-.21.03-.12.1-.21.18-.21.06 0 .14-.08.17-.17.02-.1.08-.17.12-.17.05 0 .24-.15.42-.34.18-.18.36-.34.4-.34.1 0 .52-.46.52-.58 0-.06.05-.1.12-.07.06.03.18 0 .26-.06.13-.1.13-.13 0-.56-.07-.25-.13-.59-.13-.75a.98.98 0 0 0-.09-.43c-.07-.11-.11-.1-.27.1-.12.15-.25.22-.33.2-.08-.04-.23.06-.41.26-.18.2-.34.32-.44.3-.2-.04-.49.21-.49.43 0 .12-.04.15-.16.1-.2-.05-.35.17-.35.5 0 .14-.04.2-.14.2-.09-.01-.16.06-.2.2-.02.11-.12.22-.21.24-.22.04-.3.18-.26.4.03.11-.01.19-.14.24-.1.05-.2.18-.22.3-.02.12-.08.24-.15.28-.07.04-.12.2-.12.4 0 .18-.03.33-.08.33s-.09.12-.09.27c0 .16-.06.31-.17.4a.6.6 0 0 0-.2.4.7.7 0 0 1-.16.4.65.65 0 0 0-.14.41c0 .18-.07.31-.21.43-.12.09-.22.24-.22.33 0 .1-.1.25-.2.34-.12.1-.22.23-.22.3 0 .07-.1.24-.21.38-.14.16-.2.32-.17.41.04.12-.02.2-.2.3-.27.13-.5.43-.4.53.09.08.82.25 1.02.24.11 0 .21-.13.3-.4z"/>
  <path fill="#0163cf" d="M21.32 49.9a22.1 22.1 0 0 1-5.14-1.05 17.26 17.26 0 0 1-4.98-2.38 17.93 17.93 0 0 1-2.87-2.42A20.91 20.91 0 0 1 4.5 38.9a20.58 20.58 0 0 1-1.8-4.26c-.62-2.15-.65-2.56-.99-12.1-.1-2.89-.16-4.67-.23-6.15-.06-1.4-.1-2.8-.15-4.75-.04-1.85-.11-4.1-.2-6.46A55.75 55.75 0 0 1 1.07.85C1.1.8 1.7.79 6.17.78c5.56 0 37.49.06 37.91.09l.27.01-.02 1.68c-.03 2.03-.1 4.84-.21 8.4l-.17 5.79a1876.55 1876.55 0 0 1-.35 11.93 20.84 20.84 0 0 1-.34 4.14c-.48 2.34-.91 3.6-1.98 5.71a15.38 15.38 0 0 1-2.57 3.86 20.81 20.81 0 0 1-9.47 6.47c-1.48.48-3.34.88-4.68 1-.42.03-3.02.07-3.24.04zm2.84-.18a20.77 20.77 0 0 0 4.77-.97 20 20 0 0 0 5.43-2.63c.47-.3 1.1-.8 1.7-1.36l.93-.84a20.2 20.2 0 0 0 3.74-4.67c.2-.32.53-.99.63-1.3.09-.26.2-.52.4-.87.54-.96 1.4-4.05 1.54-5.6.05-.5.1-1.56.13-3 .08-2.9.1-3.62.14-4.11.02-.29.05-1.28.07-2.21.02-.93.04-1.94.06-2.25.05-.88.1-2.55.16-5.6.06-3.2.07-4.66.03-4.79-.03-.1-.15-.12-.22-.04-.1.13-.22 0-.18-.2.03-.22.08-.34.15-.4.04-.04.06-.1.06-.17 0-.15.05-.25.14-.25.16 0 .14-.32-.03-.51-.15-.16-.2-.17-.37-.09-.23.1-.5.13-.66.04-.12-.05-.15-.06-.3-.02-.26.06-.3.02-.26-.34.03-.42-.03-.44-.27-.1-.08.11-.25.32-.38.46-.25.27-.32.38-.3.43.02.01.1.04.2.05.23.03.53.16.65.29l.1.1-.08.06a.3.3 0 0 1-.16.07c-.13 0-.25.08-.4.24l-.12.16h-.23c-.16 0-.3.02-.45.08-.26.1-.58.12-.75.05-.14-.05-.37-.4-.37-.54 0-.05.05-.2.12-.34l.12-.24-.12-.18a.9.9 0 0 1-.14-.32c-.02-.17-.02-.16-.24-.11-.12.03-.27.03-.73-.02a4.55 4.55 0 0 0-.6-.04c-.03.02.21.47.3.57.1.11.14.1.2-.01.06-.1.2-.17.32-.14.2.05.17.23-.07.48-.09.1-.16.2-.16.23s.04.09.09.13c.22.2.64 1.37 1.2 3.34.37 1.28.49 1.72.58 2.14.08.43.33 2.4.37 2.99.05.75-.02 1.67-.27 3.7a41.24 41.24 0 0 1-1.2 6.07c-.16.6-.74 2.62-.9 3.07-.16.47-.4 1.1-.6 1.57-.23.57-1.06 2.27-1.34 2.76a70.47 70.47 0 0 1-5.44 8.07c-.68.82-1.68 1.86-1.84 1.92-.1.03-.27-.09-.8-.56-.53-.47-1.17-.98-1.48-1.2a18.8 18.8 0 0 1-.66-.51c-.25-.2-.6-.45-.77-.57-.18-.11-.6-.42-.94-.67-.83-.62-2.24-1.65-3.22-2.34-1.7-1.2-1.76-1.24-1.76-1.44 0-.07.03-.17.07-.23.03-.05.33-.38.66-.73.72-.77.86-.94 1.02-1.23.37-.68.34-1.04-.14-1.5-.28-.27-.38-.3-.67-.2-.31.1-.9.46-1.12.69-.11.11-.42.37-.7.59a6.2 6.2 0 0 0-.6.54 68.37 68.37 0 0 0-4.12 3.6c-.9.8-1.1.97-1.24 1.04-.12.06-1.2 1.1-1.48 1.41-.13.15-.25.25-.41.33l-.52.32c-.4.27-.54.34-.72.34-.17 0-.26-.08-.61-.52l-.4-.48c-.1-.12-.25-.36-.33-.52a6.4 6.4 0 0 0-.33-.56c-.1-.13-.2-.36-.25-.49l-.08-.24.66-.68c.82-.82 1.89-1.94 2.92-3.04l1.9-1.97a1662.6 1662.6 0 0 0 6.46-6.59 327.15 327.15 0 0 0 6.06-6.23l1.57-1.64 1.73-1.8a99.96 99.96 0 0 0 2.72-2.9c.28-.31.63-.68.78-.81.15-.14.36-.36.48-.5.25-.3.68-.78 1.15-1.28.83-.87 1.84-2.1 1.91-2.3a.34.34 0 0 0-.1-.38c-.1-.08-.08-.15.02-.15.2 0 .46-.24.5-.44v-.4c0-.15.01-.33.03-.38.02-.1.01-.12-.28-.42l-.3-.31-.2.2c-.27.3-.31.3-.66-.17l-.14-.2.02.2c.02.23-.03.35-.2.52l-.09.07-.15-.13c-.08-.08-.17-.14-.2-.14-.11 0-.32-.12-.37-.2a2.03 2.03 0 0 1-.1-.37c-.06-.35-.13-.45-.3-.46-.18-.01-.36.1-.38.24 0 .07 0 .1.06.1.08.03.08.03 0 .16-.05.09-.06.15-.05.3.03.24 0 .29-.16.23-.25-.09-.36-.04-.46.22-.08.23-.13.28-.3.28-.15 0-.18.04-.23.39-.05.34-.18.47-.31.32a1.75 1.75 0 0 1-.25-.56c-.02-.11-.02-.11.11-.12l.13-.01.01-.25c0-.17 0-.24-.03-.25-.23-.06-.25-.08-.35-.27-.1-.2-.1-.22-.1-.73-.02-.55-.05-.64-.13-.37l-.17.4c-.08.14-.15.32-.16.39-.01.07-.05.14-.1.17-.06.04-.08.04-.16 0-.13-.06-.14-.06-.28.06a.39.39 0 0 0-.13.22.78.78 0 0 1-.12.26c-.13.2-.27.47-.48 1a3.9 3.9 0 0 1-.8 1.36c-.17.2-.37.47-.44.6-.11.21-.26.42-.7.98-.1.13-.26.38-.36.56-.1.18-.27.45-.38.59-.26.32-.32.45-.43.86-.12.47-.31 1.57-.36 1.98-.03.39-.11.6-.23.67a.66.66 0 0 1-.3.03 1.88 1.88 0 0 1-.85-.35c-.11-.08-.25-.15-.3-.18-.12-.04-.12-.04-.29.12-.09.09-.3.34-.47.56-.56.74-1.07 1.3-1.67 1.8-.12.11-.25.24-.28.3-.02.05-.07.26-.1.47-.13.95-.47 1.94-.73 2.1-.2.13-.27.1-1.16-.46a8.11 8.11 0 0 0-.62-.37 1.46 1.46 0 0 0-.82 0c-.4.16-.77.82-1.28 2.3-.38 1.12-.58 1.5-.96 1.86-.17.16-.2.18-.3.16a.6.6 0 0 1-.22-.09c-.14-.1-.34-.41-.48-.76-.16-.37-.3-.57-.5-.67-.24-.13-.42-.04-.59.3a7.6 7.6 0 0 0-.49 2.5 11.48 11.48 0 0 1-.7 3.53c-.06.08-.12.2-.13.28-.02.16-.22.38-.36.42-.18.04-.39-.14-1.92-1.61a17.2 17.2 0 0 1-.91-.93c-.1-.14-.19-.3-.3-.64-.3-.86-.34-.89-1.3-1.02-.61-.08-.71-.12-1.14-.4L6 25.18a2.5 2.5 0 0 1-.48-.34 2.19 2.19 0 0 0-.5-.34c-.22-.1-.36-.21-.64-.48-.22-.2-.4-.35-.46-.36-.29-.07-.54-.23-.6-.39-.05-.2.46-.69 1.3-1.24A6.09 6.09 0 0 1 7 21.08c.29-.07.73-.16.98-.2.55-.07.84-.15 1.18-.33a6.37 6.37 0 0 0 3.05-4.27l.2-.88c.14-.54.14-.56.06-.65-.04-.06-.11-.08-.34-.1-.5-.06-.8-.25-.9-.6-.08-.29 0-.52.33-1 .44-.61 1.17-1.75 1.5-2.34.2-.34.52-1.27.7-1.96.09-.4.14-.51.36-.87.08-.13.18-.32.21-.43.08-.23.3-.6.45-.76.06-.07.16-.22.22-.34.05-.12.18-.32.29-.45.1-.12.2-.28.22-.35.04-.15.18-.36.42-.6l.18-.18-.18-.12c-.2-.13-.33-.3-.42-.58-.1-.3-.1-.42.04-.54.12-.12.24-.17.27-.11.01.02.05.18.07.35.07.48.18.62.33.45.06-.06.06-.07-.01-.24a.5.5 0 0 1-.06-.29.35.35 0 0 0-.03-.22c-.07-.14-.06-.17.1-.27l.16-.09-.02-.16a.5.5 0 0 1 .04-.32c.1-.23.1-.27-.07-.32l-.22-.06c-.11-.03-.2-.17-.35-.55a2.07 2.07 0 0 0-.21-.42c-.18-.22-.51-.3-1.14-.31-.3 0-.39 0-.46.05-.1.08-.1.15.02.26.12.11.18.12.28.05.08-.06.49-.07.49-.01 0 .02-.07.1-.15.2a.81.81 0 0 0-.15.2c0 .05.14.13.27.13.2 0 .4.13.52.33.18.3.12.53-.1.37a.39.39 0 0 0-.12-.07c-.02 0-.13.1-.25.22-.21.22-.35.28-.58.28-.19 0-.28.07-.47.37-.35.52-.5.63-.79.58-.26-.04-.27-.05-.24-.36l.02-.27-.14.14c-.12.12-.14.16-.14.28 0 .13 0 .15.1.17.06.02.11.05.11.08s.09.14.19.25c.2.23.28.37.28.55 0 .2.05.26.23.25.26-.01.3 0 .3.07s-.14.25-.23.3c-.05.03-.1.02-.22-.03-.16-.07-.16-.07-.23 0a.84.84 0 0 1-.21.11c-.1.05-.16.1-.2.17a.57.57 0 0 1-.22.23c-.25.16-.27.19-.24.4.02.2-.04.4-.13.44-.03.01-.1 0-.15-.03-.06-.03-.13-.05-.16-.04-.06.02-.14-.04-.14-.1 0-.03.05-.1.12-.17l.12-.11-.04-.16a.95.95 0 0 1-.02-.6c.06-.2.06-.3 0-.4-.1-.14-.19-.1-.54.22-.38.34-.46.4-.54.35-.07-.04-.13-.23-.14-.38 0-.12 0-.12.28-.25.16-.06.3-.12.34-.12.12 0 .18-.06.18-.2 0-.16-.04-.27-.14-.37-.06-.05-.1-.07-.26-.06-.3.02-.34-.06-.15-.26.14-.14.16-.24.15-.68-.01-.3-.02-.34-.1-.42-.08-.07-.15-.1-.32-.13l-.23-.04-.04-.27c-.02-.14-.05-.3-.08-.34-.08-.16-.2-.27-.3-.27-.13 0-.13.08 0 .23.1.1.1.13.09.26-.03.2.04.37.17.42.18.06.17.17-.01.35-.14.12-.14.22-.03.32.05.04.08.1.06.13-.02.08.04.18.23.39.17.18.19.25.11.4-.08.17-.13.19-.33.14-.17-.04-.2-.04-.26.02-.1.08-.26.35-.26.4 0 .04.06.12.13.2.2.23.18.3-.17.47-.2.08-.27.1-.87.2-.37.05-.53.12-.53.2l.05.23.09.3c.04.13.16.22.33.22.1 0 .2-.07.2-.15 0-.02.02-.07.05-.11l.06-.08.1.07c.16.1.2.09.38-.07.2-.15.25-.16.32-.06.07.09.04.15-.16.5-.18.3-.28.6-.28.79 0 .08-.03.16-.06.2-.06.07-.07.07-.2.02a.9.9 0 0 0-.51-.07 1.3 1.3 0 0 1-.64-.13c-.1-.1.1-.24.33-.25.18-.02.15-.1-.06-.16-.32-.1-.57-.24-.64-.37-.02-.05 0-.07.1-.12.09-.04.13-.09.13-.15.02-.12-.05-.16-.33-.18-.23-.02-.25-.03-.39-.17l-.14-.14-.18.1c-.1.05-.23.1-.27.1-.08 0-.2.08-.22.16-.01.03-.03.04-.06.02s-.04-.07-.03-.15c.02-.13-.02-.23-.11-.3-.08-.05-.08-.2-.01-.36.05-.12.15-.18.38-.23.3-.05.35-.11.39-.43.03-.22-.01-.24-.2-.09-.13.1-.22.13-.22.07l.15-.2c.2-.23.19-.29-.06-.27-.16 0-.2 0-.22-.05-.05-.09-.02-.2.07-.3.04-.05.12-.08.25-.1.22-.03.25-.09.2-.37-.04-.3-.18-.46-.29-.32a.3.3 0 0 1-.3.12.47.47 0 0 0-.23.04c-.1.04-.15.05-.2.02-.13-.07-.1-.17.1-.25.22-.1.3-.24.21-.37-.08-.13-.2-.11-.36.05-.13.13-.13.13-.22.08a.77.77 0 0 1-.3-.33.3.3 0 0 0-.15-.15c-.08-.04-.11-.08-.12-.17-.02-.15-.1-.16-.25-.04-.14.12-.2.13-.3.05-.09-.06-.18-.06-.65.03-.22.04-.44.06-.5.05l-.08-.03.01-.3.01-.3-.12-.04c-.07-.01-.13-.05-.14-.08-.03-.07.05-.2.14-.23.1-.03.17 0 .2.1l.04.1.12-.11c.06-.07.11-.13.11-.15 0-.03-.06-.05-.15-.06-.12-.02-.18-.05-.34-.2-.2-.19-.34-.25-.47-.21-.04.01-.07.05-.07.08 0 .07-.06.14-.12.11-.06-.02-.24.08-.3.17a.66.66 0 0 1-.39.22c-.1 0-.23.1-.23.15 0 .03.04.1.09.14.1.12.1.19-.01.17-.13 0-.14.11-.03.28.05.07.09.17.09.23s.02.16.05.23c.03.07.06.21.08.32.01.18.03.2.12.25.12.07.16.23.05.26-.07.02-.12.1-.07.13.02.01.08.01.14 0h.1l-.09.2c-.1.22-.16.26-.36.22a.43.43 0 0 0-.15-.02l.02 1.38.1 4.52c.08 3.76.12 4.82.22 7.46A708.43 708.43 0 0 1 2 25a172.42 172.42 0 0 0 .19 4.48 19.25 19.25 0 0 0 2.26 8.89c.64 1.28.93 1.73 2.08 3.3.57.77.75.99 1.4 1.65a16.57 16.57 0 0 0 4.5 3.64 14.78 14.78 0 0 0 4.7 1.97c1.12.32 1.32.37 1.93.47.78.14 2.05.29 2.75.33.42.03 1.95.02 2.36 0zm5.4-5.64c.44-.38 1.46-1.57 2.35-2.76.73-.96 2.66-3.8 3.35-4.9a36.55 36.55 0 0 0 2.75-5.3c.76-1.97 2-6.7 2.31-8.9.28-1.89.38-2.95.38-4.1a16.4 16.4 0 0 0-.81-5.45c-.4-1.46-.74-2.42-1.25-3.44-.44-.87-.71-1.27-.89-1.27-.07 0-.4.38-1.02 1.2-.71.93-1.54 1.95-2.11 2.58a387.3 387.3 0 0 1-6.02 6.36l-2.65 2.77c-1.93 2.03-3.6 3.75-5.05 5.23A590.52 590.52 0 0 0 8.4 39.01c-.41.46-.43.5-.4.63.02.14.7 1.25.97 1.58.26.33.7.75.79.77.12.03.3-.06.69-.38.53-.43 1.45-1.22 1.78-1.53.15-.15.45-.4.66-.56.4-.3.55-.42 1.42-1.21.75-.69 1.66-1.48 2.79-2.44l1.54-1.31a8.71 8.71 0 0 1 1.82-1.35c.18-.08.24-.1.35-.08.2.03.43.16.65.36.25.23.35.41.37.68.05.5-.3 1.11-1.15 2.04-.5.56-.74.84-.8.97l-.06.12.15.13c.08.08.4.3.72.52l1.1.79 1.12.8c.32.22.96.68 1.4 1.01l1.38.99c.77.53 1.71 1.26 2.78 2.19.3.25.6.48.66.51.13.07.16.06.42-.16zM12.3 29.75c.09-.13.25-.5.38-.88.22-.62.34-1.3.5-2.87.16-1.45.29-2.13.49-2.56.23-.51.5-.68.83-.51.19.1.35.3.56.72.24.46.36.64.48.7.15.08.28.04.44-.15a7 7 0 0 0 .76-1.56l.29-.8c.28-.76.63-1.39.89-1.57.17-.12.5-.2.82-.17.33.01.36.02.9.38.2.14.5.31.67.4l.31.15.1-.06c.14-.1.22-.26.34-.64.17-.5.28-.96.34-1.4.06-.46.1-.53.4-.77a11.8 11.8 0 0 0 1.39-1.48c.74-.96.84-1.07 1.05-1.07.07 0 .2.06.39.17.44.26.68.37.85.37.26 0 .33-.12.38-.66.07-.7.31-1.95.45-2.28.04-.1.2-.34.34-.54.15-.2.33-.47.4-.62.16-.3.34-.55.65-.9.18-.2.25-.32.43-.7.02-.07.14-.23.26-.37.53-.66.76-1.06 1.1-1.98a8 8 0 0 1 .29-.71c.05-.1.26-.37.47-.59.66-.71.87-1.25.67-1.73-.05-.13-.19-.2-.61-.29-.43-.09-.5-.14-.66-.52-.3-.7-.4-.79-.92-.78-.37 0-.65.05-1.33.26l-.52.16h-1.25c-1.36 0-1.35 0-2.2.22-.5.12-.94.27-1.28.42-.3.13-.71.26-1.07.33a5.4 5.4 0 0 0-1.31.47c-.4.2-.43.22-.48.16-.15-.2-.2-.46-.21-1 0-.6-.08-.73-.44-.7-.2 0-.21.01-.78.4-.17.12-.48.31-.7.44-.88.5-1.32.85-1.5 1.21-.05.1-.26.4-.46.66-.45.6-.54.74-.87 1.48-.35.77-.49 1.12-.71 1.84a6.07 6.07 0 0 1-.82 1.69l-.6.93c-.16.27-.4.61-.5.75-.3.39-.35.5-.33.71 0 .1.05.21.08.26.1.14.4.27.68.3.36.06.4.07.49.16.05.05.08.11.08.2 0 .27-.49 2.22-.67 2.68a7.45 7.45 0 0 1-1.7 2.42c-.83.75-1.25.96-2.22 1.11a8.48 8.48 0 0 0-3.46 1.2c-.5.32-.88.62-.97.77a.4.4 0 0 0-.06.2c0 .1.04.12.28.24.16.08.38.23.56.38.4.35.7.57.76.57.06 0 .24.11.43.27.09.07.34.24.57.38 1.08.67 1 .64 1.57.69.42.03.85.1.99.17.11.05.17.18.36.76.1.3.2.56.27.67.2.32 1.99 2.04 2.5 2.4.17.13.3.13.39 0zm24.8-21.5c.05-.05.09-.11.09-.15 0-.03.07-.15.16-.26.18-.21.18-.23-.05-.26-.18-.03-.4.03-.47.13-.04.07-.04.1 0 .27.07.38.12.42.28.27zm3.46-.13c.01-.09-.06-.16-.17-.16-.13 0-.17.07-.1.16.06.1.25.1.27 0zM8.82 5.46c0-.01-.07-.06-.16-.1-.22-.1-.23-.12-.27-.34-.04-.2-.11-.3-.2-.3-.04 0-.12.09-.21.23-.3.45-.3.46 0 .45.12-.01.32 0 .44.03.25.06.4.07.4.03zm3.97-.69c.02-.05-.04-.15-.1-.15-.05 0-.07.1-.02.15.05.07.1.06.12 0zm3.6-.07a.2.2 0 0 0-.1 0c-.04 0-.02.01.03.01.06 0 .09 0 .06-.01zm3.42-.32c0-.07 0-.1-.04-.1-.07 0-.1.09-.08.16.03.08.1.04.12-.06zm-1.74-.71c.2-.13.33-.15 1.07-.22.6-.05.74-.19.56-.5-.1-.2-.1-.3 0-.55.06-.15.08-.26.08-.44v-.24l.2-.23c.26-.29.3-.37.22-.43-.13-.1-.74-.12-2.03-.07l-.66.03-.28.38c-.38.52-.4.6-.16.68.18.05.22.14.19.49-.03.39-.01.45.24.7.14.14.21.23.21.28 0 .27.08.3.36.12zm13.22-.15c.04-.06-.07-.2-.25-.29-.09-.05-.17-.12-.19-.15 0-.04.03-.16.09-.28.05-.13.1-.25.1-.29 0-.07-.21-.2-.34-.2a.28.28 0 0 0-.16.05c-.05.05-.1.06-.22.05-.1-.01-.17 0-.2.03-.06.04-.06.05.03.12.13.11.11.17-.1.27-.1.05-.18.11-.18.14 0 .02.06.1.13.18l.14.14.25-.02.25-.02.1.11a1 1 0 0 0 .18.15c.09.05.34.05.37 0zm-3.16-.35c.15-.06.35-.1.49-.11.13-.01.26-.03.3-.05.05-.03.05-.04-.03-.17-.1-.18-.2-.26-.34-.26-.15 0-.35.09-.35.15s-.15.19-.34.3c-.18.1-.2.14-.18.21.02.06.12.05.45-.07zm1.2-.03c.05-.06.02-.12-.06-.12-.07 0-.1.08-.06.13.05.05.08.04.13-.01zm3.68-.08a.14.14 0 0 0-.14-.14c-.07 0-.1.06-.05.14.04.08.2.08.2 0zm-16.06-.22c-.08-.08-.12-.1-.14-.07-.07.07.02.18.14.18h.1zm15.4-.26c.1-.13.03-.2-.15-.2-.13.02-.14.03-.15.11-.02.15.01.2.13.19.07-.01.13-.05.17-.1zm1.6-.13c0-.09-.09-.15-.18-.12-.09.02-.14.1-.1.16.06.1.28.08.28-.04zM3.8 2.28c0-.04-.02-.06-.06-.06-.05 0-.07.02-.07.06 0 .05.02.07.07.07.04 0 .06-.02.06-.07zm1.5-.2c.12-.1.13-.17.05-.25-.07-.07-.1-.06-.17.05-.13.23-.11.22-.32.12-.18-.1-.27-.1-.2 0 .05.1.25.18.4.18.12 0 .17-.02.25-.1zm7.31-.01c.2-.2.16-.24-.26-.26a1.11 1.11 0 0 1-.4-.06c-.07-.05-.16-.03-.26.08-.1.1-.06.17.17.25.27.08.32.1.49.1.12 0 .16-.02.26-.11zm-1.46-.09c0-.06-.08-.2-.1-.18-.04.02-.04.16 0 .2.02.03.1.02.1-.02zm5.34-.16c.1-.16.13-.32.06-.42a1.11 1.11 0 0 0-.4-.25l.06.12c.07.1.09.16.09.38 0 .34.04.38.19.17zM13 1.53c.02-.03.03-.06.02-.07-.03-.04-.12.02-.12.07 0 .06.05.06.1 0zm-2.45-.2c.08-.13.05-.2-.1-.2-.17 0-.23.07-.15.2.08.1.18.1.25 0zm1.31.03c0-.05-.09-.1-.12-.07-.02.03.05.12.1.12.01 0 .02-.02.02-.05zm-4.55-.1c.07-.04.07-.06.04-.1-.06-.07-.34-.05-.36.03-.03.15.14.19.32.07zM4.8 1.22a.2.2 0 0 0-.1 0c-.03.01-.01.02.04.02.06 0 .08 0 .06-.02z"/>
  <path fill="#0163cf" d="M3.48 4.63c-.12-.04-.2-.08-.2-.11l.06-.08c.1-.1.1-.13.1-.17l-.09-.18a.83.83 0 0 1-.07-.16l.07-.1c.08-.1.1-.14.14-.24.05-.19.12-.24.24-.16.13.09.2.31.17.48-.01.08-.06.13-.17.18-.08.05-.13.1-.15.17-.01.08 0 .15.08.27l.05.11c-.01.02-.15 0-.23-.01zM4.25 4.7a.57.57 0 0 1-.2-.2c-.06-.1-.05-.14.06-.15.08-.01.12-.03.15-.1.07-.11.07-.28 0-.52a.99.99 0 0 1-.07-.29c.01-.02.1-.02.16 0 .06.03.14.13.15.18.02.1.04.14.12.21.1.08.11.13.12.28 0 .2-.05.37-.16.5-.1.1-.23.14-.33.09zM3.75 3.13a.24.24 0 0 1-.1-.15c-.02-.04-.02-.05 0-.07.04-.02.15-.03.2 0 .06.03.07.16.01.21-.03.04-.06.04-.1 0zM4.88 3.53a.31.31 0 0 1-.06-.06c-.03-.04-.03-.05-.02-.14v-.09l-.08-.17c-.12-.23-.13-.34-.07-.41.07-.07.17 0 .2.13.01.04.06.09.09.09s.04.09.04.27v.21l.06.04c.02 0 .03.02.03.03 0 .02-.11.12-.13.12a.13.13 0 0 1-.06-.02zM2.3 4.03c-.04-.03-.05-.06-.05-.1 0-.1.09-.13.18-.07.07.05.09.14.04.17-.03.02-.12.02-.16 0zM5.78 4.7c-.14-.04-.24-.12-.28-.2a.9.9 0 0 1-.04-.18c-.03-.17-.03-.18-.06-.2-.05-.06-.1.03-.13.22-.04.27-.17.38-.26.22-.03-.05-.04-.07-.04-.18 0-.2.04-.42.1-.5.03-.04.1-.06.18-.06.08 0 .17.04.19.08.01.04.04.04.2.04h.2c.08.04.14.18.14.37 0 .1 0 .12-.05.2-.03.08-.04.1-.03.14.02.07-.02.09-.12.05zM4.92 5.23c-.07-.02-.1-.06-.1-.09 0-.07.21-.07.25 0 .02.04.01.06-.03.09-.05.03-.05.03-.12 0zM6 5.23l-.03-.03c0-.01.15-.08.18-.08.04.01.04.06 0 .1-.03.03-.1.04-.15.01zM6.67 7.98c-.1-.02-.16-.06-.2-.14l-.02-.05.05-.04a.16.16 0 0 1 .1-.05c.05 0 .19-.05.4-.14l.14-.06c.04 0 .04 0 .04.05 0 .07-.05.25-.1.34-.04.09-.08.1-.23.1l-.18-.01zM7.83 8.35c-.01-.01 0-.1.01-.1.02-.03.05-.02.1 0 .06.03.02.1-.06.1h-.05zM14.2 5.6c-.32-.2-.42-.3-.44-.48-.04-.21 0-.42.08-.46.1-.05.08-.3-.03-.51-.05-.09-.06-.24-.02-.31.05-.1.16-.16.28-.16.1 0 .19.03.3.12.46.34.52.41.53.63 0 .24-.05.25-.27.07-.14-.11-.19-.15-.23-.15-.1 0-.15.11-.25.54l-.04.22c0 .07.05.18.12.3l.13.24c0 .02-.06 0-.15-.06zM11.23 6.38c-.03-.04-.03-.1 0-.13s.07-.02.1.04c.03.04.03.08 0 .1-.03.04-.08.04-.1 0zM15.13 4.02c-.04-.01-.1-.08-.12-.14-.04-.08-.03-.14.02-.24a.55.55 0 0 1 .16-.2c.07-.03.1.04.1.25 0 .19-.03.28-.08.32-.03.03-.04.03-.08.01zM15.59 2.77c-.03-.01-.06-.07-.06-.1 0-.1.2-.16.31-.1.06.03.07.05.05.1-.02.04-.1.08-.2.1-.07.02-.07.02-.1 0zM17.8 2.9c-.05-.04-.12-.12-.12-.15s.06-.1.12-.14c.15-.08.3.06.22.2-.02.04-.12.1-.16.1a.15.15 0 0 1-.06-.02zM18.73 2.64a3.6 3.6 0 0 1-.23-.15 1.84 1.84 0 0 0-.22-.13c-.07-.04-.09-.04-.27-.05-.23 0-.26-.02-.26-.1 0-.02.01-.06.05-.12.05-.09.07-.14.09-.25.02-.09.04-.13.08-.12.05.02.06.06.07.18 0 .17 0 .16.25.22.3.06.4.1.43.2l.02.11.08.15c.08.14.07.15-.09.06zM19.08 2.12c-.05-.06-.08-.25-.08-.58 0-.22.01-.3.04-.32.03-.03.08 0 .2.1.15.16.17.23.07.3-.08.05-.08.07 0 .2.03.04.06.08.06.1.02.06-.03.14-.13.2-.07.03-.12.04-.16 0zM30.2 8.1c-.03-.02-.03-.14 0-.16.03-.02.08 0 .1.04.02.05.02.09-.01.12s-.07.03-.1 0zM34.23 8.87c-.2-.05-.28-.13-.22-.2.02-.05.09-.09.12-.09.04 0 .12.06.22.15.16.14.12.2-.12.14zM31.83 9.33c-.01-.02-.02-.03 0-.08.01-.07.05-.13.07-.14.03-.01.05.01.08.07.03.06.02.09-.03.14-.06.05-.1.05-.12.01zM34.68 9.62c-.09-.03-.08-.16.02-.2.04-.03.07-.01.1.05.02.07.02.1-.01.14-.03.03-.07.03-.11.01zM35.15 9.18a.5.5 0 0 1-.22-.3c-.01-.06 0-.1.06-.16l.05-.06.03.02c.1.06.24.31.24.45 0 .1-.05.12-.16.05zM34.21 9.23c-.02 0-.04-.03-.05-.05l-.01-.04v-.02c0-.02.02-.02.03-.02.03 0 .06.02.09.04l.02.04c0 .02-.02.03-.05.04h-.03zM43.1 9.45a.89.89 0 0 1-.12-.3 1.02 1.02 0 0 1-.02-.43c.04-.08.12-.15.18-.15.04 0 .08.02.1.08.03.05.02.23 0 .43-.04.23-.08.37-.1.38l-.03-.01zM42.25 9.17c-.07-.06-.07-.14 0-.17.04-.03.1-.02.14.01.03.02.04.04.04.07 0 .04-.03.07-.09.1-.04.02-.06.02-.09-.01z"/>
  <path fill="#fff" d="M29 43.43c-.36-.26-2.3-1.75-3.35-2.59-1-.8-1.39-1.09-2.02-1.5l-.88-.64c-.29-.22-.88-.63-1.3-.92-.44-.29-.8-.54-.81-.56-.03-.03.14-.23.68-.8.56-.6.88-1.08 1.09-1.64.08-.22.1-.3.08-.52-.05-.68-.68-1.34-1.54-1.61-.3-.1-.45-.08-.78.08-.5.23-.87.53-2.8 2.24l-2.15 1.89c-.51.43-1.16 1.02-1.45 1.3-.3.28-.95.86-1.45 1.28l-1.36 1.15c-.49.4-.97.74-1.07.74-.14 0-.89-1-1.18-1.58l-.14-.27 1.09-1.11c2.1-2.15 3.27-3.37 3.72-3.87.57-.64 2.33-2.44 5.16-5.3 2.78-2.8 3.6-3.65 4.92-5.04 1.84-1.93 2.76-2.89 5.53-5.72 4.17-4.24 5.18-5.31 6.48-6.8.65-.77 1.85-2.3 2.04-2.61.04-.07.1-.12.14-.12.54 0 1.85 4.03 2.28 7.04.23 1.56.2 3.12-.1 5.23-.3 2.07-1.1 6-1.46 7.21-.26.86-.77 2.34-.98 2.82-.26.57-1.38 2.82-1.61 3.2l-.48.81c-.4.68-.46.78-.95 1.55l-.73 1.17c-.42.68-.66 1.02-1.12 1.6a32 32 0 0 0-.76 1c-.62.87-2.09 2.67-2.41 2.97l-.1.09zm-.03-8.12c.24-.31.6-.97.74-1.34.15-.41.17-.43.38-.38.28.07.98.1 1.16.05.09-.03.22-.1.3-.17.4-.35.71-1.2.52-1.4-.08-.07-.06-.07-.44 0-.36.07-.59.06-.73-.04-.09-.05-.1-.08-.08-.18l.06-.85c.04-.84.05-.86.37-1.24.43-.52.7-.64 1.36-.61.63.02.81.15 1.27.88.25.4.33.5.4.44.1-.07.44-.77.54-1.06.11-.35.16-1.03.1-1.53s-.18-.72-.7-1.26c-.65-.68-.93-.8-1.81-.8-.37 0-.51.02-.65.07-.2.08-.59.33-.81.53-.08.07-.16.12-.17.1a6.92 6.92 0 0 1-.06-.82 3.9 3.9 0 0 0-.2-1.46c-.25-.65-1.4-2.3-1.6-2.3-.2 0-1.1 1.22-1.5 2.01-.35.69-.44 1.1-.43 2.05v.57l-.1-.05a8.72 8.72 0 0 1-.52-.34 7.67 7.67 0 0 0-.64-.41c-.22-.12-.23-.12-.75-.12-.48 0-.55 0-.71.09-.38.19-.98.8-1.2 1.24l-.13.29v.64c0 .57.02.72.12 1.23.21 1.04.27 1.07.97.48a4 4 0 0 1 .65-.44c.27-.14.33-.16.58-.16.24 0 .3.02.55.14.33.16.66.45.76.68.1.2.15.66.17 1.52l.02.65-.1.06c-.18.08-.37.06-.73-.08-.22-.1-.35-.13-.38-.1-.06.06-.08.46-.03.64.03.12.1.23.3.42.3.3.53.44.84.52.22.05.26.05.52-.02.18-.05.3-.06.35-.04.03.02.1.16.15.3.11.38.68 1.51.84 1.68.17.18.25.17.45-.08zM12.5 24.05a9.16 9.16 0 0 0-1.3-.19c-.81-.06-.9-.14-1.69-1.72l-.41-.82.08-.07c.05-.03.2-.13.36-.2a5.58 5.58 0 0 0 1.76-1.52c.86-1.04 1.23-1.84 1.75-3.79a17.1 17.1 0 0 1 4.54-7.94c.7-.7 1.26-1.19 1.83-1.57.62-.42 1.4-.79 1.66-.79.03 0 .12.05.19.12.07.06.15.1.17.1.02 0 .15-.09.3-.2.49-.4 1.1-.66 1.92-.8.63-.13 1.11-.16 2.08-.16a5.6 5.6 0 0 0 2.03-.24c.33-.1.7-.2.82-.22.31-.06.33-.03.37.51.02.24.05.47.07.51.09.16.36.26.89.3.19.02.35.06.41.1.19.12.12.25-.41.89-.46.54-.57.73-.87 1.53-.37.97-.5 1.22-.82 1.53-.42.43-.89.59-1.65.55-.63-.02-.83-.16-1.48-1.03-.45-.6-.62-.77-.8-.77-.28 0-.34.24-.11.43.31.27.54.51.79.87.28.39.56.69.75.79.22.1.42.14 1.07.17.35.02.67.05.69.06.07.05-.19.27-.44.38-.2.1-.27.1-.57.1-.58 0-1.37-.21-2.05-.54a1.73 1.73 0 0 1-.9-.83 2.6 2.6 0 0 1-.24-.96c-.04-.3-.24-.93-.38-1.2-.1-.19-.29-.4-.37-.4-.17 0-.2.16-.05.54l.36 1.28c.14.56.28 1.07.31 1.15.09.2.53.6.9.82a5.3 5.3 0 0 0 2.13.7c.22.02.44.06.49.07.07.03.08.05.05.14-.04.1-.3.5-.32.5a.93.93 0 0 1-.16-.12c-.1-.09-.15-.1-.2-.08-.1.07-.19.3-.26.79-.05.27-.12.66-.18.87-.05.2-.12.6-.17.86-.15.98-.17 1.04-.35 1-.15-.05-.22-.19-.24-.5-.01-.16-.03-.3-.05-.31-.02-.01-.12.05-.2.14-.16.15-.18.16-.27.1a.61.61 0 0 1-.17-.15l-.08-.1.12-.16c.06-.1.22-.3.36-.49.22-.3.3-.45.2-.45-.01 0-.12.1-.23.23-.39.46-.53.6-.7.71-.2.13-.4.15-.5.06-.06-.06-.07-.07-.02-.17.03-.06.26-.28.5-.5a4.6 4.6 0 0 0 1.25-1.39c.24-.43.38-.83.31-.92-.13-.15-.25-.04-.52.49-.23.45-.5.77-1.1 1.26-.66.55-1.08 1.05-1.12 1.35-.02.11 0 .14.15.3l.17.17-.15.32c-.17.36-.18.48-.01.26.32-.44.66-.67.66-.47 0 .1-.52.86-.92 1.36-.53.66-.91 1.02-1 .96a1.68 1.68 0 0 1-.05-.52c0-.45 0-.51-.07-.57-.06-.05-.09-.06-.15-.02-.17.09-.23.35-.32 1.41-.12 1.35-.19 1.77-.35 2.12-.12.27-.18.3-.28.22-.16-.15-.2-.27-.18-.66.02-.31.05-.44.23-.98.2-.58.27-.9.18-.9-.01 0-.08.15-.15.34l-.28.73c-.21.48-.29.71-.29.85 0 .22-.2.28-.33.09-.11-.18-.05-.46.27-1.18.45-1 .33-.99-.22.03-.14.26-.3.54-.36.61-.14.17-.4.3-.57.3-.26-.03-.17-.2.46-.9.44-.5.64-.78.8-1.12.14-.31.3-.92.3-1.2 0-.19-.02-.22-.08-.22-.13 0-.25.22-.48.81a3.5 3.5 0 0 1-.83 1.44c-.4.45-.66.8-.75 1.03a.78.78 0 0 1-.2.27c-.08.06-.6.35-1.15.64a9.23 9.23 0 0 0-1.83 1.11 8.88 8.88 0 0 0-1.67 2.05c-.44.72-.4.68-.68.62zm3.43-3.75c.93-.45 1.34-.68 1.36-.76 0-.06 0-.07-.1-.04-.17.04-1.75.83-1.92.96-.16.11-.2.19-.13.19l.79-.35zm-1.47-1.95c.13-.18.44-.85.59-1.28.07-.22.24-.77.36-1.23.38-1.4.52-1.83.76-2.33.12-.26.21-.5.2-.52-.04-.07-.16-.04-.24.07-.3.42-.78 1.7-1.03 2.77a9.82 9.82 0 0 1-.86 2.57c0 .1.14.07.22-.05zM22 16.88c.15-.17.18-.26.06-.2a.93.93 0 0 0-.27.32c0 .06.08.02.2-.12zm3.08-2.73c.08-.2.12-.37.08-.37-.04 0-.22.28-.23.36-.03.22.05.23.15.01zm.02-.87c.14-.24.12-.43-.03-.26-.09.1-.19.34-.16.39.04.06.09.03.19-.13zm-8-1.04l.78-.83c.55-.56.67-.72.55-.72-.09 0-.45.31-.94.82-.54.56-.74.8-.7.9.04.1.13.05.31-.17zm2.48-2.23c.33-.26.98-.7 1.28-.85.26-.13.39-.36.2-.36-.2 0-1.83 1.24-1.83 1.39 0 .08.07.05.35-.18zm5.77-2.55c.22-.12.1-.24-.27-.28-.3-.04-.6-.18-.72-.33-.1-.12-.12-.33-.07-.56a.68.68 0 0 1 .34-.5c.15-.09.19-.2.09-.27-.14-.12-.53.16-.7.5-.3.6.02 1.27.72 1.5.13.04.47 0 .6-.06zm.3-.95c.12-.13.15-.19.15-.3 0-.29-.35-.49-.77-.46-.29.02-.37.1-.37.38 0 .38.22.57.62.55.2-.02.24-.03.37-.17zM12.67 14c-.26-.03-.6-.1-.66-.14-.07-.05-.06-.13.06-.25.08-.08.14-.12.37-.23l.28-.14-.07-.16a.8.8 0 0 1-.08-.19l.06-.11c.1-.15.24-.22.45-.24.18-.02.23-.04.23-.1 0-.04-.03-.06-.15-.1-.22-.1-.22-.17-.01-.32.22-.16.25-.18.26-.23.01-.04 0-.06-.02-.1-.07-.09-.05-.18.06-.28.25-.25.69-.24.69.02 0 .08-.05.18-.16.3a.98.98 0 0 0-.22.44c-.04.18-.08.25-.14.32-.06.07-.1.16-.12.33-.02.15-.1.37-.2.49a.99.99 0 0 0-.17.4c-.03.2-.05.25-.13.3-.07.03-.07.03-.33 0zM14.03 11.1c-.11-.05-.16-.12-.2-.24a.4.4 0 0 1 .14-.4l.15-.04c.06 0 .1-.02.1-.03.01-.01-.01-.06-.04-.1-.07-.08-.09-.13-.09-.27 0-.2.13-.34.28-.31.04 0 .15.05.24.1.1.04.19.08.2.07.02 0 0-.04-.08-.13-.21-.27-.3-.55-.2-.66.08-.08.11-.08.19-.02.06.06.16.1.23.07.06-.02.05-.05-.06-.13-.15-.12-.21-.25-.21-.46 0-.13 0-.15.04-.2l.07-.05c.13 0 .56.27.73.45.11.12.15.21.15.36 0 .12-.06.2-.17.26-.1.06-.15.1-.17.2a.44.44 0 0 1-.22.29c-.13.07-.2.16-.2.25a.5.5 0 0 1-.1.31c-.05.04-.09.06-.16.07-.05 0-.1.02-.1.03-.02 0-.02.08-.02.16a.5.5 0 0 1-.18.4c-.1.09-.18.1-.32.02z"/>
  <path fill="#fff" d="M14.03 11.1a.32.32 0 0 1-.19-.23.4.4 0 0 1 .04-.3c.06-.1.12-.13.24-.15l.1-.03c.01 0-.01-.05-.05-.1a.4.4 0 0 1-.03-.46c.05-.1.14-.14.23-.12.04 0 .13.04.22.08.17.09.23.1.23.08 0 0-.04-.07-.1-.13a.96.96 0 0 1-.23-.5c0-.1 0-.11.06-.16.08-.07.1-.07.16-.01a.3.3 0 0 0 .12.06c.07.03.16.02.16-.01l-.1-.11a.53.53 0 0 1-.21-.46c0-.13 0-.15.04-.2.03-.03.07-.05.1-.05.06 0 .33.15.49.27.18.13.3.27.34.37.05.19 0 .36-.12.42a.39.39 0 0 0-.2.22c-.03.12-.1.2-.23.28-.13.08-.18.15-.2.3-.01.2-.09.3-.25.33-.05 0-.1.02-.1.03-.02 0-.02.08-.02.16a.5.5 0 0 1-.18.4c-.1.09-.18.1-.32.02zM15.77 8.77a1.02 1.02 0 0 1-.22-.16c-.08-.07-.2-.17-.26-.2-.31-.2-.35-.25-.35-.43 0-.12 0-.13.05-.18.09-.08.2-.07.45.05.35.16.38.12.1-.18-.12-.12-.21-.24-.23-.29-.04-.08-.04-.08 0-.15.04-.08.14-.16.2-.14.07.02.2.12.41.34.26.25.39.42.47.58.06.14.07.2.01.24-.08.06-.23.03-.36-.07-.12-.1-.14-.04-.05.16.08.17.09.32.02.39-.06.05-.15.07-.24.04zM16.56 7.8c-.19-.13-.68-.63-.8-.82-.07-.1-.06-.17.01-.27.06-.08.1-.08.22 0 .3.18.58.5.71.78.07.14.1.24.06.3-.02.08-.1.08-.2.01zM16.96 7.48c-.15-.1-.64-.7-.75-.94a.48.48 0 0 1-.07-.26c0-.13.04-.27.09-.29.1-.03.26.16.54.64.24.4.4.71.4.76 0 .04-.07.12-.11.12a.24.24 0 0 1-.1-.03zM17.3 7.13c-.1-.06-.38-.56-.58-1.08-.11-.27-.11-.35-.02-.5.07-.1.18-.18.22-.17l.08.1c.14.3.5 1.3.51 1.47.01.09 0 .1-.03.15-.06.07-.11.08-.18.03zM17.7 6.7a5.35 5.35 0 0 1-.39-1.2c0-.1.1-.27.24-.42.26-.29.36-.28.4.02.05.33.08.53.13.74.1.38.12.52.1.6 0 .05-.05.1-.18.24-.1.1-.18.17-.2.17a.5.5 0 0 1-.1-.16zM18.42 6.13c-.1-.1-.24-.37-.3-.58-.08-.3-.07-.55.05-.78.1-.21.17-.24.23-.08.09.23.24.94.26 1.25.01.11 0 .16-.02.22-.04.1-.1.1-.22-.03zM12.33 24.02a7.36 7.36 0 0 0-1.14-.15 3.37 3.37 0 0 1-.44-.04c-.3-.09-.52-.32-.86-.91-.16-.29-.79-1.56-.79-1.6 0-.04.07-.09.45-.29.59-.33.9-.58 1.35-1.06 1.13-1.23 1.6-2.12 2.1-4.11.6-2.28 1.13-3.5 2.34-5.34.52-.79.86-1.22 1.65-2.1a10.8 10.8 0 0 1 3.35-2.73c.6-.29.81-.32.97-.12.1.12.14.1.42-.12a3 3 0 0 1 .66-.42 8.12 8.12 0 0 1 3.52-.55 5.6 5.6 0 0 0 1.79-.22c.46-.13.8-.21.97-.24.25-.03.28.02.3.52.02.42.04.48.1.56.15.15.37.22.76.24.42.03.58.09.6.24.03.1-.11.31-.53.8-.42.49-.55.7-.78 1.33-.4 1.1-.52 1.32-.79 1.63-.25.28-.55.48-.88.56-.33.08-.84.1-1.15.05-.46-.08-.65-.25-1.33-1.18-.25-.34-.47-.57-.58-.6-.16-.05-.32.04-.32.18 0 .04.01.1.04.15.04.06.17.18.2.18s.29.26.41.41l.3.41c.2.3.5.62.69.71.24.14.58.2 1 .2.24 0 .62.03.74.05.08.02.09.05.04.12-.08.12-.48.34-.7.38-.44.09-1.41-.1-2.15-.43-.56-.25-.8-.43-1.02-.76a1.92 1.92 0 0 1-.3-.94c-.06-.67-.45-1.63-.7-1.76-.09-.04-.13-.04-.19.03-.05.07-.06.14 0 .28.16.43.23.69.45 1.55.17.68.25.98.31 1.1.25.48 1.26 1.1 2.22 1.35.28.07.5.1.8.13.29.03.5.07.53.1.03.03.03.04 0 .11-.04.1-.18.35-.25.44-.03.04-.06.07-.08.07a.51.51 0 0 1-.16-.1c-.14-.13-.18-.14-.26-.03-.1.12-.12.26-.23.92l-.12.6c-.1.4-.16.71-.22 1.16-.08.52-.12.69-.18.75-.06.07-.24.03-.3-.07-.07-.1-.09-.18-.1-.42-.02-.26-.03-.3-.07-.3-.02 0-.1.07-.19.16-.13.14-.16.16-.2.15-.05-.02-.3-.27-.3-.31 0-.04.12-.21.4-.55.2-.26.32-.46.32-.51 0-.09-.1-.02-.25.17-.5.61-.78.85-1.02.85-.18 0-.29-.09-.25-.2.03-.08.26-.31.62-.62.37-.32.73-.69.87-.88.2-.27.49-.8.58-1.07.05-.16.05-.26-.01-.3a.18.18 0 0 0-.1-.04c-.05 0-.18.15-.27.33-.18.38-.24.48-.35.64-.21.28-.48.54-1 .97-.52.42-.9.89-.99 1.2-.03.12.01.19.2.35l.14.13-.15.3c-.2.42-.2.52 0 .25.23-.32.26-.35.35-.42.2-.15.32-.13.27.03a9.38 9.38 0 0 1-1.81 2.28c-.16.07-.18 0-.16-.53 0-.48 0-.5-.08-.57-.06-.03-.07-.04-.11-.01-.2.1-.25.34-.34 1.43a9.25 9.25 0 0 1-.25 1.87c-.08.26-.23.52-.3.52-.05 0-.19-.15-.23-.25-.04-.09-.05-.12-.05-.38 0-.35.02-.44.22-1 .2-.58.28-.85.25-.95-.03-.1-.07-.02-.19.32-.04.14-.13.37-.2.52-.3.72-.37.94-.37 1.1 0 .14-.13.21-.26.13-.13-.08-.17-.35-.1-.58.07-.2.14-.38.34-.81.19-.42.26-.6.24-.62-.03-.03-.22.27-.52.84-.18.34-.35.6-.45.67-.2.16-.5.23-.59.14-.03-.02-.04-.05-.03-.08.05-.15.2-.35.62-.82.6-.66.79-.97.96-1.56.12-.43.17-.88.1-.93-.04-.04-.13 0-.19.08-.07.1-.2.4-.34.77-.14.42-.28.72-.42.91l-.33.4c-.5.55-.7.82-.8 1.08-.12.29-.18.33-1.3.9-1.2.62-1.54.83-2 1.24a9.17 9.17 0 0 0-1.89 2.48l-.08.12h-.1l-.35-.06zm3.38-3.63c.74-.34 1.31-.64 1.5-.77.08-.06.1-.11.06-.14-.03-.02-1.06.46-1.55.72-.45.24-.65.38-.6.44 0 .02.03.01.59-.25zm-1.28-2.02c.09-.1.34-.6.48-.96.17-.42.26-.74.48-1.51.29-1.07.45-1.63.57-1.96l.22-.48c.18-.36.21-.46.14-.5-.22-.14-.88 1.45-1.24 2.98a8.75 8.75 0 0 1-.73 2.21c-.07.14-.11.26-.1.28l.06.02c.04 0 .07-.01.12-.08zm7.53-1.48c.13-.14.18-.2.14-.2a.19.19 0 0 0-.08.03 1.4 1.4 0 0 0-.24.28c0 .05.06.01.18-.1zm3.06-2.66c.05-.07.14-.33.14-.4 0-.04-.01-.03-.08.04-.1.11-.17.24-.17.34 0 .12.04.13.1.02zm.03-.9c.08-.12.13-.26.12-.33-.02-.05-.03-.05-.1.03a.71.71 0 0 0-.16.3c0 .14.03.14.14 0zm-8.12-.93a11.47 11.47 0 0 1 .67-.72c.71-.72.88-.91.85-.97 0-.03-.02-.03-.08 0a8.62 8.62 0 0 0-1.52 1.52c-.12.18-.07.3.08.17zm2.44-2.24l.21-.17a9.25 9.25 0 0 1 1.45-.95.28.28 0 0 0 .1-.18c0-.07-.07-.08-.2-.01a8.24 8.24 0 0 0-1.7 1.33c0 .04.07.03.14-.02zm5.9-2.69c.13-.04.19-.1.15-.17-.03-.06-.12-.1-.31-.11-.21-.02-.35-.06-.5-.14a.83.83 0 0 1-.33-.28c-.07-.16-.04-.52.06-.72a.49.49 0 0 1 .16-.19.55.55 0 0 1 .14-.09c.06 0 .1-.07.1-.15 0-.2-.24-.15-.5.1-.35.34-.44.8-.23 1.21.13.25.37.45.67.57.11.04.46.03.6-.03zm.18-.83a.62.62 0 0 0 .28-.27c.09-.16.06-.3-.08-.43-.15-.14-.33-.2-.6-.18-.3.01-.4.1-.39.4 0 .13 0 .16.06.25.05.1.16.2.28.24.11.04.36.04.45 0z"/>
  <path fill="#fff" d="M25.03 6.35c-.1-.05-.12-.12-.07-.2.07-.14.22-.16.4-.07.15.07.15.17 0 .24-.12.06-.25.07-.33.03z"/>
  <path fill="#fff" d="M12.27 24.01c-.4-.08-.7-.12-1.1-.14-.36-.02-.45-.04-.6-.12-.3-.16-.56-.55-1.2-1.85l-.27-.58c0-.04.08-.09.47-.3a7.35 7.35 0 0 0 2.66-2.93c.3-.6.48-1.11.76-2.17A15.3 15.3 0 0 1 15 11.04c.64-1.02 1-1.5 1.73-2.33 1.43-1.6 2.38-2.41 3.52-2.98a3 3 0 0 1 .7-.28c.12-.02.14-.02.22.01.05.02.1.06.14.1.09.12.13.1.32-.04a4.13 4.13 0 0 1 1.66-.8 9.6 9.6 0 0 1 2.53-.24 4.9 4.9 0 0 0 1.97-.24c.35-.1.72-.2.88-.22.25-.03.28.03.3.5.02.45.04.52.14.6.14.14.34.2.73.22.15.01.32.03.38.05.12.04.22.13.22.2 0 .12-.13.31-.5.74-.52.61-.56.68-.95 1.73-.34.9-.53 1.22-.92 1.53-.37.3-.84.41-1.5.39-.62-.03-.85-.19-1.44-.99-.28-.39-.4-.53-.53-.66-.18-.19-.36-.23-.48-.1-.06.06-.07.15-.03.24a.8.8 0 0 0 .24.23c.11.06.37.35.55.6.37.52.52.7.73.85.26.19.5.24 1.17.27.56.02.74.04.74.09 0 .08-.2.24-.46.36-.21.1-.34.12-.64.1a4.75 4.75 0 0 1-2.63-.98c-.28-.3-.48-.8-.48-1.17 0-.27-.2-.93-.39-1.32-.18-.38-.33-.52-.46-.43-.1.08-.1.13.06.55.08.24.18.6.36 1.3.16.65.26 1.01.31 1.1.06.11.22.3.36.43.62.53 1.65.96 2.5 1.04.31.03.58.07.64.1.03 0 .06.03.07.05.01.03-.15.37-.25.5-.04.05-.08.09-.1.09a.46.46 0 0 1-.15-.1c-.13-.1-.16-.12-.22-.08-.1.06-.18.32-.27.9-.02.18-.08.48-.13.67-.1.4-.16.71-.23 1.21-.1.63-.13.74-.25.74a.3.3 0 0 1-.22-.11c-.07-.1-.09-.18-.1-.43-.02-.22-.04-.3-.08-.3l-.17.17c-.13.14-.17.16-.2.15a1.1 1.1 0 0 1-.3-.31c0-.04.09-.18.36-.53.3-.38.4-.57.33-.57-.04 0-.16.12-.3.3-.44.54-.72.76-.96.76-.11 0-.21-.04-.25-.11-.04-.09.16-.31.71-.79.6-.53.9-.89 1.19-1.46.22-.45.26-.62.17-.7l-.07-.05c-.1 0-.23.17-.37.48-.22.48-.52.83-1.18 1.38-.49.4-.83.77-1 1.08-.14.26-.12.35.1.55l.15.13-.14.29c-.2.42-.22.53-.02.26.23-.31.27-.35.36-.42.28-.2.37-.1.19.21-.4.67-1.35 1.84-1.68 2.06-.2.14-.23.08-.22-.46 0-.52 0-.52-.04-.57-.07-.07-.14-.06-.22.02-.13.13-.18.41-.27 1.5-.1 1.27-.17 1.67-.35 2.02-.07.14-.15.24-.19.24-.05 0-.19-.15-.23-.25a.78.78 0 0 1-.05-.32c-.01-.3.02-.5.17-.93.21-.6.28-.82.29-.96.01-.18-.02-.2-.08-.06l-.07.18c-.03.12-.21.6-.34.88-.15.34-.24.62-.25.77-.01.1-.03.14-.06.18-.08.08-.24.03-.3-.1a.77.77 0 0 1-.03-.42c.04-.13.2-.54.35-.86a5 5 0 0 0 .26-.62c0-.1-.17.17-.55.87-.17.31-.34.56-.43.63-.2.16-.5.23-.59.14-.05-.05-.04-.1.03-.21.06-.12.29-.4.55-.68a3.46 3.46 0 0 0 1.1-2.27c0-.18 0-.21-.03-.23-.02-.02-.04-.02-.08 0-.12.05-.23.24-.44.84-.16.45-.32.78-.46.97l-.38.45c-.42.47-.62.74-.72.99-.12.28-.12.28-1.7 1.1-.95.5-1.35.77-1.83 1.25a9.35 9.35 0 0 0-1.65 2.26l-.08.1-.1.01c-.06 0-.25-.02-.42-.06zm3.2-3.51c.45-.2 1.35-.65 1.55-.76.2-.11.28-.2.27-.24-.01-.02-.02-.02-.09 0-.27.1-1.55.72-1.83.9-.2.13-.32.24-.24.24l.35-.14zm-1.04-2.13a7.39 7.39 0 0 0 .9-2.3 12.64 12.64 0 0 1 1-2.96c.04-.1.04-.11.01-.14-.08-.08-.2.07-.4.46-.33.65-.64 1.6-.92 2.79a7.8 7.8 0 0 1-.57 1.72c-.18.37-.22.47-.2.5l.06.01c.04 0 .07-.02.12-.08zm7.5-1.46c.18-.17.24-.29.1-.2-.05.04-.25.27-.25.3 0 .03.05 0 .16-.1zm3.12-2.74c.06-.13.12-.33.1-.35-.02-.02-.13.11-.19.23-.04.08-.06.21-.03.24.02.03.08-.03.12-.12zm-.04-.8c.11-.14.19-.36.14-.4-.02-.02-.12.1-.18.2-.06.13-.08.27-.03.27.01 0 .05-.03.07-.07zm-8.04-1l.2-.24.6-.62c.5-.51.62-.66.67-.74.03-.07.02-.08-.04-.06a8.07 8.07 0 0 0-1.54 1.5c-.15.22-.07.34.1.15zm2.56-2.34c.4-.32.91-.67 1.3-.87a.74.74 0 0 0 .25-.18c.05-.07.05-.13.01-.17-.05-.04-.31.1-.76.44a6.1 6.1 0 0 0-1.1.93c0 .06.08.02.3-.15zm5.64-2.53c.21-.05.3-.12.25-.2-.03-.06-.13-.1-.33-.11-.2-.02-.32-.05-.48-.14a.83.83 0 0 1-.33-.29c-.07-.16-.04-.51.06-.71a.6.6 0 0 1 .27-.26c.1-.04.13-.1.13-.17 0-.19-.23-.15-.48.08-.2.2-.31.4-.35.66-.03.25.04.52.22.75.12.16.36.33.57.4.1.03.33.02.47 0zm.33-.88c.16-.1.28-.28.28-.42 0-.15-.14-.31-.33-.4a1.18 1.18 0 0 0-.64 0c-.1.05-.14.13-.15.29-.03.27.12.49.39.57.02.01.12.02.2.01.14 0 .18 0 .25-.05z"/>
  <path fill="#fff" d="M12.31 24.02a7.6 7.6 0 0 0-1.12-.15c-.39-.02-.46-.04-.62-.11-.3-.15-.53-.52-1.16-1.79-.17-.34-.3-.63-.3-.65 0-.04.04-.07.45-.3.53-.3.79-.49 1.15-.85A7.98 7.98 0 0 0 13 15.88a15.4 15.4 0 0 1 2.38-5.42c.5-.75.8-1.13 1.49-1.9a13.58 13.58 0 0 1 2.55-2.35c.54-.36 1.21-.7 1.53-.76.15-.03.25 0 .35.1.12.13.14.13.43-.1.25-.2.39-.29.64-.41.5-.24 1.17-.41 1.95-.5.4-.04 1.16-.07 1.55-.06.42.02.98-.01 1.23-.06l.65-.17c.76-.22 1.05-.27 1.12-.21.06.05.08.15.1.49.02.36.03.44.07.5.09.18.35.28.82.31.3.02.44.06.52.14.06.06.07.08.06.15-.02.1-.13.26-.38.56a7 7 0 0 0-.54.68c-.14.22-.25.46-.46 1.02-.36.96-.49 1.2-.76 1.49-.41.43-.86.6-1.6.6-.54 0-.79-.1-1.1-.41-.08-.08-.3-.36-.5-.62-.51-.68-.66-.82-.85-.79-.1.02-.18.1-.18.18 0 .13.06.22.24.34.16.11.38.36.63.71.38.52.56.72.81.84.26.13.44.16 1.06.19.25 0 .51.02.58.04.11.01.13.02.13.06 0 .1-.46.4-.71.44-.6.12-2.04-.26-2.74-.73-.2-.14-.35-.29-.48-.5a1.9 1.9 0 0 1-.28-.9 3.76 3.76 0 0 0-.6-1.68c-.1-.1-.17-.13-.24-.08-.1.06-.1.17 0 .44.1.22.18.53.39 1.33.3 1.16.3 1.18.48 1.4.5.58 1.67 1.13 2.65 1.24.65.08.74.1.77.16.01.03-.15.37-.25.5-.04.05-.08.09-.1.09a.59.59 0 0 1-.16-.1.64.64 0 0 0-.16-.11c-.07 0-.16.16-.21.37l-.1.51-.12.65c-.1.42-.15.66-.22 1.06-.09.6-.14.85-.18.9-.05.06-.18.07-.27 0-.1-.07-.13-.18-.15-.45-.02-.23-.04-.32-.07-.32l-.18.16c-.08.09-.17.16-.18.16a.9.9 0 0 1-.27-.23c-.04-.05-.06-.09-.05-.12.01-.04.06-.11.45-.62.23-.3.3-.45.24-.45-.03 0-.16.13-.3.3-.46.56-.71.76-.96.76-.11 0-.21-.04-.24-.1-.05-.1.1-.26.64-.75.41-.36.73-.68.88-.9.23-.32.52-.88.57-1.11.03-.12.01-.19-.05-.23-.1-.07-.21.05-.41.45-.1.18-.21.39-.27.47-.16.22-.54.6-.93.93-.52.42-.85.8-1 1.1-.13.25-.1.34.14.54l.12.1-.14.3c-.08.16-.15.32-.15.35l-.02.07.05-.04.2-.25c.2-.27.4-.43.5-.39.1.04.04.18-.22.57-.61.92-1.5 1.91-1.65 1.86-.07-.02-.08-.1-.08-.59v-.46l-.04-.04c-.06-.06-.11-.06-.19-.01-.15.1-.2.34-.3 1.55-.1 1.31-.19 1.73-.38 2.06-.07.11-.12.18-.16.18-.05 0-.19-.15-.23-.25a.78.78 0 0 1-.05-.32c-.02-.31.02-.48.23-1.1.1-.29.19-.58.2-.65.04-.14.04-.28.02-.3-.03 0-.05.03-.17.39l-.27.7c-.2.46-.28.68-.3.84-.01.17-.06.23-.18.21-.15-.02-.23-.2-.21-.44.01-.15.1-.38.35-.95.2-.42.24-.53.25-.61l.02-.06-.07.07c-.06.07-.2.32-.5.86-.25.46-.37.6-.58.7-.17.1-.36.1-.42.04-.03-.03-.04-.05-.03-.09.03-.12.2-.35.6-.79.42-.47.64-.77.78-1.05.22-.47.4-1.33.3-1.45-.02-.04-.03-.04-.1 0-.11.06-.2.21-.41.82-.17.46-.33.79-.47.98l-.37.43c-.45.5-.58.7-.73 1.01-.09.17-.11.21-.2.28a7.8 7.8 0 0 1-1.07.6c-1.41.73-1.75.95-2.33 1.55A8.68 8.68 0 0 0 13 23.75l-.15.24c-.07.09-.07.09-.17.09l-.37-.06zm3.07-3.48c.78-.35 1.65-.8 1.81-.92.1-.07.13-.13.06-.13-.09 0-1.44.65-1.83.88l-.25.17c-.13.14-.08.14.2 0zm-.98-2.14c.17-.17.55-1.02.75-1.68.04-.12.17-.57.28-1 .4-1.48.5-1.76.74-2.24.2-.4.22-.5.15-.52-.14-.06-.43.48-.76 1.36-.18.5-.31.96-.5 1.75A8.36 8.36 0 0 1 14.4 18c-.13.3-.18.4-.17.43.03.03.11.01.16-.04zm7.56-1.52c.12-.12.17-.2.13-.2-.04 0-.3.28-.3.33 0 .04.05 0 .17-.13zm3.1-2.73c.06-.15.11-.31.09-.33-.02-.02-.13.12-.19.23-.04.08-.06.21-.03.24.02.03.07-.02.12-.14zm-.06-.77a.73.73 0 0 0 .16-.35c0-.03 0-.07-.02-.07-.03 0-.15.16-.19.25-.04.09-.05.23-.02.23l.07-.06zm-8.1-.95l.25-.26c.1-.13.4-.45.65-.7.46-.48.6-.63.64-.71.03-.05.02-.07-.04-.05a7.81 7.81 0 0 0-1.58 1.58c-.07.14-.03.2.08.14zm2.44-2.26l.27-.2c.27-.22.87-.62 1.12-.76.28-.15.33-.18.36-.26.04-.08.03-.13-.03-.13-.06-.01-.16.04-.4.2a7.92 7.92 0 0 0-1.43 1.16c0 .04.04.03.1 0zm5.83-2.67c.2-.04.3-.12.25-.2-.03-.06-.13-.09-.33-.11-.2-.02-.32-.05-.48-.14a.84.84 0 0 1-.33-.28c-.06-.15-.05-.45.03-.67a.64.64 0 0 1 .3-.32c.1-.05.13-.09.13-.16 0-.18-.24-.14-.49.1-.37.34-.45.89-.19 1.3.14.2.4.41.64.48.1.04.3.03.47 0zm.24-.85c.26-.07.44-.39.34-.59-.1-.2-.38-.32-.72-.3-.28.02-.37.1-.37.38 0 .17.03.25.12.36.06.07.17.13.27.16.07.03.27.02.36 0z"/>
  <path fill="#fff" d="M12.27 24.01a7.6 7.6 0 0 0-1.1-.14c-.35-.02-.45-.04-.6-.1-.2-.11-.43-.4-.72-.94-.2-.35-.75-1.47-.75-1.51 0-.04.05-.07.46-.3.6-.34.86-.54 1.33-1.04a7.63 7.63 0 0 0 1.44-2.09c.24-.52.42-1.07.68-2.04.59-2.2 1.04-3.28 2-4.83.6-.96 1-1.5 1.63-2.2 1.5-1.7 2.44-2.5 3.6-3.08.68-.34.89-.38 1.08-.17.04.04.08.07.1.07.04 0 .14-.06.32-.2.25-.2.38-.28.63-.4.51-.25 1.12-.4 1.89-.5a13.7 13.7 0 0 1 1.57-.06c.44.01 1-.02 1.26-.06l.56-.15c.47-.13.86-.23 1.03-.25.24-.03.27.03.3.5.02.52.04.57.25.68.14.08.32.12.63.14.31.02.44.06.52.14.06.06.07.08.06.14-.02.12-.14.3-.61.85-.23.28-.4.53-.5.76-.05.1-.18.4-.28.69-.39 1-.51 1.23-.84 1.54-.28.27-.55.41-.92.48-.22.04-.72.05-.93.03-.46-.07-.67-.23-1.23-.98-.46-.62-.61-.78-.77-.82-.1-.03-.23.02-.27.1-.06.13.02.27.22.4.18.13.41.4.7.82.3.41.54.65.8.76.24.12.31.13 1.3.18l.37.04c.12.03-.04.2-.33.36a1.1 1.1 0 0 1-.72.15 4.93 4.93 0 0 1-2.59-.93 1.85 1.85 0 0 1-.53-1.2 3.8 3.8 0 0 0-.18-.84c-.23-.68-.5-1.05-.66-.94-.1.06-.1.16.02.48.08.2.2.65.43 1.54.2.76.25.92.35 1.05.34.45 1.07.9 1.9 1.16.3.1.62.16 1.05.21.38.04.5.07.53.12.04.06-.26.6-.34.6a.6.6 0 0 1-.16-.1.73.73 0 0 0-.16-.11c-.02 0-.1.09-.14.16-.05.1-.1.28-.17.74l-.13.66c-.09.36-.15.66-.23 1.17-.09.57-.12.7-.17.77-.04.05-.05.05-.12.04-.11-.01-.18-.06-.23-.17-.04-.06-.05-.13-.06-.33-.02-.23-.04-.32-.07-.32l-.18.16c-.14.14-.17.16-.2.15-.07-.02-.3-.27-.3-.31 0-.05.08-.16.34-.51.32-.4.42-.59.35-.59-.03 0-.15.12-.29.29-.47.56-.72.77-.97.77-.11 0-.22-.04-.24-.1-.02-.04-.01-.06.01-.12.05-.09.31-.35.64-.64.68-.6.93-.9 1.24-1.53.17-.33.23-.53.21-.62-.02-.06-.11-.11-.16-.09-.08.05-.18.2-.3.45l-.21.39c-.2.28-.5.6-.98 1-.63.52-1.06 1.04-1.1 1.32 0 .11.04.18.2.33l.14.11-.06.14-.15.32c-.15.33-.12.32.15-.03.25-.34.5-.5.54-.34.02.07-.05.2-.25.5-.6.92-1.5 1.93-1.66 1.88-.07-.02-.08-.1-.08-.59v-.46l-.05-.04c-.06-.06-.1-.06-.18-.01-.15.1-.2.36-.3 1.66-.12 1.34-.23 1.82-.47 2.09-.06.06-.08.05-.18-.04-.12-.11-.16-.23-.17-.49-.01-.31.02-.48.23-1.1.19-.56.23-.73.23-.85 0-.08-.01-.1-.05-.06l-.13.34c-.05.17-.18.48-.27.7-.2.45-.27.69-.3.86-.01.16-.06.22-.17.2a.26.26 0 0 1-.12-.05c-.06-.05-.1-.2-.1-.34 0-.17.02-.24.46-1.25.14-.33.17-.4.13-.38-.03 0-.16.2-.32.5-.42.76-.51.91-.67 1.02a.75.75 0 0 1-.4.15c-.14 0-.2-.04-.18-.12.02-.12.18-.34.57-.77.46-.52.64-.75.79-1.05.18-.37.35-1 .35-1.33 0-.15-.03-.2-.1-.17-.12.05-.24.28-.44.82-.24.69-.34.87-.75 1.33-.53.6-.66.78-.82 1.1-.15.3-.18.33-1.2.85-1.45.75-1.76.96-2.32 1.5-.55.56-1 1.14-1.42 1.87l-.24.4-.08.1-.1.01c-.06 0-.25-.02-.42-.06zm3.23-3.52c.43-.2 1.36-.66 1.56-.78.2-.12.29-.22.2-.22-.1 0-1.47.66-1.83.88-.17.1-.33.22-.33.26 0 .03.08 0 .4-.14zm-1.08-2.1c.08-.1.34-.62.5-1 .16-.42.23-.64.48-1.54.43-1.59.52-1.87.78-2.4.19-.39.2-.43.16-.48-.04-.04-.06-.03-.12.02a6.5 6.5 0 0 0-.9 2.06l-.27 1.03a8.23 8.23 0 0 1-.61 1.88c-.1.2-.18.4-.18.43-.01.06 0 .06.04.06s.07-.02.12-.06zm7.49-1.45c.16-.14.27-.34.12-.22-.07.06-.25.26-.25.28 0 .04.04.02.13-.06zm3.14-2.77c.04-.1.12-.34.1-.35-.02-.02-.13.11-.18.21-.04.1-.07.2-.05.25.01.03.02.03.05 0a.43.43 0 0 0 .08-.1zm-.04-.8c.11-.13.19-.36.13-.4-.02-.01-.12.11-.17.22-.05.09-.07.25-.04.25l.08-.07zm-8.12-.94l.18-.18c.15-.18.33-.38.87-.93.32-.33.52-.56.52-.6l-.04-.02c-.07 0-.36.25-.83.72-.58.58-.8.85-.8.97 0 .07.02.08.1.04zm2.5-2.3l.28-.21c.23-.18.84-.58 1.1-.73.24-.13.32-.2.34-.29.04-.17-.11-.11-.58.2-.55.39-1.3 1-1.3 1.09 0 .04.06.02.17-.06zm5.84-2.65c.13-.04.2-.08.2-.15 0-.07-.12-.12-.35-.14-.3-.03-.55-.14-.71-.31-.08-.08-.1-.12-.12-.21-.04-.21.02-.55.13-.7a.85.85 0 0 1 .29-.22c.06-.03.09-.1.06-.18-.01-.04-.03-.05-.1-.06-.07 0-.1.01-.2.07-.22.13-.4.36-.48.6-.04.14-.05.4-.02.54.08.34.45.7.8.8.1.02.37 0 .5-.04zm.24-.85c.17-.08.33-.31.3-.46-.01-.15-.15-.3-.36-.37a.91.91 0 0 0-.3-.03c-.28 0-.36.03-.41.16a.78.78 0 0 0 0 .43c.05.13.2.26.35.3.1.03.34 0 .42-.03z"/>
  <path fill="#fff" d="M15.7 23.49a.76.76 0 0 1-.17-.4c0-.14.34-.91.48-1.09.08-.1.13-.22.25-.55.15-.4.2-.53.3-.6a.81.81 0 0 1 .35-.13h.04l-.04.1-.22.54c-.21.51-.26.65-.34.92-.1.35-.42 1.04-.55 1.2l-.05.06zM15.23 22.7c-.07-.1-.02-.42.1-.72.15-.39.41-.78.57-.86.13-.06.22 0 .2.15-.05.25-.32.82-.53 1.12-.27.37-.29.39-.34.3zM14.7 22.53c-.12-.07-.13-.15-.05-.3.09-.15.39-.45.46-.45.02 0 .01.08-.03.21a4.6 4.6 0 0 1-.25.55c-.02.04-.07.03-.14 0zM11.76 28.95c-.41-.41-.48-.72-.3-1.42.06-.23.14-.5.38-1.19a9.91 9.91 0 0 0 .44-1.72.23.23 0 0 1 .35-.08l.06.06v.5a14.9 14.9 0 0 1-.31 2.87c-.13.5-.37 1.15-.43 1.15l-.19-.17zM10.92 28.15c-.12-.1-.3-.27-.34-.36-.06-.1-.04-.44.03-.72.08-.3.19-.63.35-1.07.23-.62.32-.95.3-1.1-.02-.18-.04-.14-.37.72-.45 1.2-.69 1.78-.74 1.79-.03 0-.13-.17-.18-.29a.74.74 0 0 1-.05-.33c0-.3.05-.44.37-1.03.14-.28.25-.51.36-.83.1-.3.21-.5.28-.55.06-.05.11-.05.21 0 .08.04.11.05.4.05.28 0 .32 0 .35.03.07.06.09.15.07.42-.01.43-.1.81-.34 1.53-.17.52-.27.85-.34 1.19-.1.48-.15.63-.21.63a.46.46 0 0 1-.15-.08zM9.58 26.19c-.08-.13-.09-.5-.02-.7.16-.48.7-1.26.89-1.31.12-.03.17.15.12.4a5 5 0 0 1-.78 1.55c-.1.1-.16.12-.2.06zM8.5 25.27c-.07-.05.05-.22.6-.86.43-.5.55-.6.7-.66.07-.03.09-.03.13-.01.03.01.07.06.1.11.03.07.04.1.03.23 0 .11-.02.16-.08.27-.13.27-.5.7-.7.82a.9.9 0 0 1-.23.09c-.14.03-.5.03-.55 0zM7.53 25.11a.81.81 0 0 1-.4-.15c-.07-.06-.07-.07-.04-.11a.55.55 0 0 1 .14-.11c.4-.23.64-.4 1.19-.86.66-.55.86-.69 1.02-.69.07 0 .1.01.15.06.05.06.06.08.06.14 0 .1-.07.2-.32.49l-.47.56c-.38.47-.5.56-.82.64-.2.04-.37.05-.51.03zM6.48 24.5c-.21-.04-.38-.13-.38-.2 0-.06.15-.18.58-.48l.68-.47a3.46 3.46 0 0 1 1.66-.65c.22 0 .33.06.3.2-.02.07-.11.17-.24.24-.2.12-.49.35-.86.68-.38.35-.7.58-.89.64-.25.07-.6.1-.85.04z"/>
  <path fill="#fff" d="M5.64 23.92c-.23-.06-.43-.2-.43-.29 0-.05.13-.13.4-.24a7.18 7.18 0 0 0 1.2-.66c.6-.37 1.55-.74 1.93-.75h.14l.07.07c.09.1.13.23.1.3-.03.06-.11.1-.42.2-.58.18-1.18.51-1.9 1.04-.13.1-.31.22-.4.27-.16.07-.16.08-.37.08-.13 0-.25 0-.32-.02zM4.9 23.33c-.24-.05-.4-.17-.38-.28.06-.21.76-.64 1.56-.96.46-.18.78-.27 1.63-.46.68-.16.92-.19.98-.12.1.11-.02.2-.52.38-.57.2-.92.37-1.45.71-.65.43-.96.58-1.34.7a.85.85 0 0 1-.48.03zM28.71 43.22c-1.15-.88-2.1-1.61-2.9-2.25a27.56 27.56 0 0 0-2.02-1.52c-.28-.2-.72-.5-.97-.7-.59-.43-.6-.44-1.36-.95l-.75-.52-.1-.09.16-.18.46-.5c.67-.72 1-1.2 1.2-1.8.15-.43 0-.96-.36-1.37-.18-.2-.4-.36-.72-.52-.48-.24-.7-.27-1.01-.16-.5.18-.92.5-3.07 2.41-.6.54-1.52 1.33-2.03 1.78-.51.44-1.12.99-1.36 1.21-.54.52-.76.73-1.48 1.32l-1.07.9c-.77.66-1.22 1-1.4 1.05-.05.01-.1 0-.18-.1a7.59 7.59 0 0 1-1.07-1.51l-.12-.25 1.3-1.33c2.14-2.17 3.1-3.16 3.67-3.81.45-.51 2.4-2.51 5.22-5.35 2.7-2.72 3.34-3.38 5.34-5.49 1.78-1.88 2.76-2.88 4.95-5.1 3.62-3.69 4.88-5.01 6.17-6.47a37.17 37.17 0 0 0 2.4-3.01c.5-.16 1.74 3.5 2.28 6.68.3 1.79.26 3.53-.11 5.96l-.63 3.49a62.9 62.9 0 0 1-.79 3.39c-.2.69-.66 2.04-.83 2.45a42.23 42.23 0 0 1-3.16 5.86c-.32.5-.6.93-.88 1.42-.28.46-.58.88-.94 1.33l-.52.68c-.62.84-.93 1.25-1.31 1.72-.74.93-1.42 1.7-1.5 1.7l-.51-.37zm.13-7.76c.2-.17.72-1.06.87-1.5.1-.3.14-.37.19-.4a4.63 4.63 0 0 0 .82.08c.55.03.65 0 .9-.24.35-.36.6-1.1.46-1.3-.06-.08-.16-.09-.5-.02-.3.07-.37.07-.55.02-.18-.06-.26-.13-.23-.22.04-.22.07-.5.09-1.02.02-.67.04-.72.28-1.01.3-.38.52-.56.78-.65.13-.05.22-.06.57-.06.37 0 .43 0 .57.06.3.12.5.34.82.87.17.28.3.43.35.4.1-.03.5-.85.6-1.18.06-.24.1-.94.06-1.31-.04-.57-.17-.8-.73-1.38-.5-.52-.78-.69-1.28-.76a4.24 4.24 0 0 0-.97 0c-.25.05-.7.3-1.02.6-.08.07-.14.12-.15.11a8.95 8.95 0 0 1-.06-1.07 3.1 3.1 0 0 0-.29-1.44c-.23-.48-.73-1.25-1.14-1.75-.23-.3-.3-.36-.4-.33-.2.05-1.08 1.25-1.46 2-.2.39-.3.67-.36.98-.05.3-.1.95-.07 1.3.01.28 0 .32-.03.32-.04 0-.42-.24-.83-.54-.12-.09-.3-.2-.41-.25a.95.95 0 0 0-.47-.12c-.36-.02-.8.01-.95.08-.36.15-1 .81-1.22 1.25-.12.24-.14.37-.14.9 0 .54.03.81.17 1.49.16.76.25.79.86.29.36-.3.6-.46.82-.56.15-.06.2-.07.47-.07.29 0 .32 0 .49.08.37.18.69.44.8.68.13.24.15.41.18 1.25.01.43.03.8.04.84.02.07-.05.17-.17.22-.16.07-.3.05-.61-.08a2.04 2.04 0 0 0-.36-.13c-.07 0-.09 0-.1.09-.02.05-.03.2-.02.33 0 .22.02.26.1.38.1.17.37.43.58.57.36.23.67.29 1 .19.1-.03.24-.06.29-.05.08 0 .1.02.13.13a10 10 0 0 0 .8 1.7c.1.16.24.3.3.3.03 0 .08-.03.13-.07z"/>
</svg>
